%TF.GenerationSoftware,KiCad,Pcbnew,10.0.3*%
%TF.CreationDate,2026-09-30T17:16:40-04:00*%
%TF.ProjectId,coda,636f6461-2e6b-4696-9361-645f70636258,rev?*%
%TF.SameCoordinates,Original*%
%TF.FileFunction,Copper,L2,Bot*%
%TF.FilePolarity,Positive*%
%FSLAX46Y46*%
G04 Gerber Fmt 4.6, Leading zero omitted, Abs format (unit mm)*
G04 Created by KiCad (PCBNEW 10.0.3) date 2026-09-30 17:16:40*
%MOMM*%
%LPD*%
G01*
G04 APERTURE LIST*
%TA.AperFunction,ComponentPad*%
%ADD10R,1.700000X1.700000*%
%TD*%
%TA.AperFunction,ComponentPad*%
%ADD11C,1.700000*%
%TD*%
%TA.AperFunction,ComponentPad*%
%ADD12R,2.000000X2.000000*%
%TD*%
%TA.AperFunction,ComponentPad*%
%ADD13C,2.000000*%
%TD*%
%TA.AperFunction,ComponentPad*%
%ADD14R,3.200000X2.000000*%
%TD*%
%TA.AperFunction,ViaPad*%
%ADD15C,0.600000*%
%TD*%
%TA.AperFunction,Conductor*%
%ADD16C,0.200000*%
%TD*%
G04 APERTURE END LIST*
D10*
%TO.P,J3,1,Pin_1_1*%
%TO.N,Net-(J1-Pin_1)*%
X82550000Y-54610000D03*
D11*
%TO.P,J3,2,Pin_2_2*%
%TO.N,GND*%
X82550000Y-57150000D03*
%TO.P,J3,3,Pin_3_3*%
%TO.N,Net-(J1-Pin_3)*%
X82550000Y-59690000D03*
%TO.P,J3,4,Pin_4_4*%
%TO.N,Net-(J1-Pin_5)*%
X82550000Y-62230000D03*
%TD*%
%TO.P,J2,7,Pin_7_7*%
%TO.N,Net-(J1-Pin_4)*%
X78740000Y-69850000D03*
%TO.P,J2,6,Pin_6_6*%
%TO.N,GND*%
X78740000Y-67310000D03*
%TO.P,J2,5,Pin_5_5*%
%TO.N,unconnected-(J2-Pin_5-Pad5)*%
X78740000Y-64770000D03*
%TO.P,J2,4,Pin_4_4*%
%TO.N,unconnected-(J2-Pin_4-Pad4)*%
X78740000Y-62230000D03*
%TO.P,J2,3,Pin_3_3*%
%TO.N,Net-(J1-Pin_40)*%
X78740000Y-59690000D03*
%TO.P,J2,2,Pin_2_2*%
%TO.N,Net-(J1-Pin_12)*%
X78740000Y-57150000D03*
D10*
%TO.P,J2,1,Pin_1_1*%
%TO.N,Net-(J1-Pin_35)*%
X78740000Y-54610000D03*
%TD*%
D12*
%TO.P,SW4,A,A_A*%
%TO.N,Net-(J1-Pin_11)*%
X78210000Y-95000000D03*
D13*
%TO.P,SW4,B,B_B*%
%TO.N,Net-(J1-Pin_7)*%
X78210000Y-100000000D03*
%TO.P,SW4,C,C_C*%
%TO.N,Net-(J1-Pin_9)*%
X78210000Y-97500000D03*
D14*
%TO.P,SW4,MP*%
%TO.N,N/C*%
X85710000Y-91900000D03*
X85710000Y-103100000D03*
D13*
%TO.P,SW4,S1,S1_S1*%
%TO.N,GND*%
X92710000Y-100000000D03*
%TO.P,SW4,S2,S2_S2*%
%TO.N,Net-(J1-Pin_13)*%
X92710000Y-95000000D03*
%TD*%
%TO.P,SW3,2,2_2*%
%TO.N,Net-(J1-Pin_16)*%
X92710000Y-85780000D03*
X86210000Y-85780000D03*
%TO.P,SW3,1,1_1*%
%TO.N,GND*%
X92710000Y-81280000D03*
X86210000Y-81280000D03*
%TD*%
%TO.P,SW2,2,2_2*%
%TO.N,Net-(J1-Pin_18)*%
X92710000Y-77180000D03*
X86210000Y-77180000D03*
%TO.P,SW2,1,1_1*%
%TO.N,GND*%
X92710000Y-72680000D03*
X86210000Y-72680000D03*
%TD*%
%TO.P,SW1,1,1_1*%
%TO.N,GND*%
X86210000Y-64080000D03*
X92710000Y-64080000D03*
%TO.P,SW1,2,2_2*%
%TO.N,Net-(J1-Pin_15)*%
X86210000Y-68580000D03*
X92710000Y-68580000D03*
%TD*%
D10*
%TO.P,J1,1,Pin_1_1*%
%TO.N,Net-(J1-Pin_1)*%
X74335000Y-54610000D03*
D11*
%TO.P,J1,2,Pin_2_2*%
%TO.N,unconnected-(J1-Pin_2-Pad2)*%
X71795000Y-54610000D03*
%TO.P,J1,3,Pin_3_3*%
%TO.N,Net-(J1-Pin_3)*%
X74335000Y-57150000D03*
%TO.P,J1,4,Pin_4_4*%
%TO.N,Net-(J1-Pin_4)*%
X71795000Y-57150000D03*
%TO.P,J1,5,Pin_5_5*%
%TO.N,Net-(J1-Pin_5)*%
X74335000Y-59690000D03*
%TO.P,J1,6,Pin_6_6*%
%TO.N,unconnected-(J1-Pin_6-Pad6)*%
X71795000Y-59690000D03*
%TO.P,J1,7,Pin_7_7*%
%TO.N,Net-(J1-Pin_7)*%
X74335000Y-62230000D03*
%TO.P,J1,8,Pin_8_8*%
%TO.N,unconnected-(J1-Pin_8-Pad8)*%
X71795000Y-62230000D03*
%TO.P,J1,9,Pin_9_9*%
%TO.N,Net-(J1-Pin_9)*%
X74335000Y-64770000D03*
%TO.P,J1,10,Pin_10_10*%
%TO.N,unconnected-(J1-Pin_10-Pad10)*%
X71795000Y-64770000D03*
%TO.P,J1,11,Pin_11_11*%
%TO.N,Net-(J1-Pin_11)*%
X74335000Y-67310000D03*
%TO.P,J1,12,Pin_12_12*%
%TO.N,Net-(J1-Pin_12)*%
X71795000Y-67310000D03*
%TO.P,J1,13,Pin_13_13*%
%TO.N,Net-(J1-Pin_13)*%
X74335000Y-69850000D03*
%TO.P,J1,14,Pin_14_14*%
%TO.N,unconnected-(J1-Pin_14-Pad14)*%
X71795000Y-69850000D03*
%TO.P,J1,15,Pin_15_15*%
%TO.N,Net-(J1-Pin_15)*%
X74335000Y-72390000D03*
%TO.P,J1,16,Pin_16_16*%
%TO.N,Net-(J1-Pin_16)*%
X71795000Y-72390000D03*
%TO.P,J1,17,Pin_17_17*%
%TO.N,unconnected-(J1-Pin_17-Pad17)*%
X74335000Y-74930000D03*
%TO.P,J1,18,Pin_18_18*%
%TO.N,Net-(J1-Pin_18)*%
X71795000Y-74930000D03*
%TO.P,J1,19,Pin_19_19*%
%TO.N,unconnected-(J1-Pin_19-Pad19)*%
X74335000Y-77470000D03*
%TO.P,J1,20,Pin_20_20*%
%TO.N,unconnected-(J1-Pin_20-Pad20)*%
X71795000Y-77470000D03*
%TO.P,J1,21,Pin_21_21*%
%TO.N,unconnected-(J1-Pin_21-Pad21)*%
X74335000Y-80010000D03*
%TO.P,J1,22,Pin_22_22*%
%TO.N,unconnected-(J1-Pin_22-Pad22)*%
X71795000Y-80010000D03*
%TO.P,J1,23,Pin_23_23*%
%TO.N,unconnected-(J1-Pin_23-Pad23)*%
X74335000Y-82550000D03*
%TO.P,J1,24,Pin_24_24*%
%TO.N,unconnected-(J1-Pin_24-Pad24)*%
X71795000Y-82550000D03*
%TO.P,J1,25,Pin_25_25*%
%TO.N,unconnected-(J1-Pin_25-Pad25)*%
X74335000Y-85090000D03*
%TO.P,J1,26,Pin_26_26*%
%TO.N,unconnected-(J1-Pin_26-Pad26)*%
X71795000Y-85090000D03*
%TO.P,J1,27,Pin_27_27*%
%TO.N,unconnected-(J1-Pin_27-Pad27)*%
X74335000Y-87630000D03*
%TO.P,J1,28,Pin_28_28*%
%TO.N,unconnected-(J1-Pin_28-Pad28)*%
X71795000Y-87630000D03*
%TO.P,J1,29,Pin_29_29*%
%TO.N,unconnected-(J1-Pin_29-Pad29)*%
X74335000Y-90170000D03*
%TO.P,J1,30,Pin_30_30*%
%TO.N,unconnected-(J1-Pin_30-Pad30)*%
X71795000Y-90170000D03*
%TO.P,J1,31,Pin_31_31*%
%TO.N,unconnected-(J1-Pin_31-Pad31)*%
X74335000Y-92710000D03*
%TO.P,J1,32,Pin_32_32*%
%TO.N,unconnected-(J1-Pin_32-Pad32)*%
X71795000Y-92710000D03*
%TO.P,J1,33,Pin_33_33*%
%TO.N,unconnected-(J1-Pin_33-Pad33)*%
X74335000Y-95250000D03*
%TO.P,J1,34,Pin_34_34*%
%TO.N,unconnected-(J1-Pin_34-Pad34)*%
X71795000Y-95250000D03*
%TO.P,J1,35,Pin_35_35*%
%TO.N,Net-(J1-Pin_35)*%
X74335000Y-97790000D03*
%TO.P,J1,36,Pin_36_36*%
%TO.N,unconnected-(J1-Pin_36-Pad36)*%
X71795000Y-97790000D03*
%TO.P,J1,37,Pin_37_37*%
%TO.N,unconnected-(J1-Pin_37-Pad37)*%
X74335000Y-100330000D03*
%TO.P,J1,38,Pin_38_38*%
%TO.N,unconnected-(J1-Pin_38-Pad38)*%
X71795000Y-100330000D03*
%TO.P,J1,39,Pin_39_39*%
%TO.N,unconnected-(J1-Pin_39-Pad39)*%
X74335000Y-102870000D03*
%TO.P,J1,40,Pin_40_40*%
%TO.N,Net-(J1-Pin_40)*%
X71795000Y-102870000D03*
%TD*%
D15*
%TO.N,GND*%
X88900000Y-93980000D03*
X91440000Y-66040000D03*
X93153630Y-61245832D03*
X86360000Y-60960000D03*
X85090000Y-57150000D03*
X92710000Y-97790000D03*
X91440000Y-102870000D03*
X93980000Y-83820000D03*
X83820000Y-80010000D03*
X93980000Y-74930000D03*
X83820000Y-73660000D03*
%TD*%
%TO.N,Net-(J1-Pin_5)*%
D16*
X82550000Y-62230000D02*
X81160000Y-60840000D01*
X81160000Y-60840000D02*
X75485000Y-60840000D01*
X75485000Y-60840000D02*
X74335000Y-59690000D01*
%TO.N,Net-(J1-Pin_3)*%
X82550000Y-59690000D02*
X81160000Y-58300000D01*
X81160000Y-58300000D02*
X75485000Y-58300000D01*
X75485000Y-58300000D02*
X74335000Y-57150000D01*
%TO.N,Net-(J1-Pin_1)*%
X82550000Y-54610000D02*
X81280000Y-55880000D01*
X75605000Y-55880000D02*
X74335000Y-54610000D01*
X81280000Y-55880000D02*
X75605000Y-55880000D01*
%TO.N,Net-(J1-Pin_15)*%
X86210000Y-68580000D02*
X82400000Y-72390000D01*
X82400000Y-72390000D02*
X74335000Y-72390000D01*
X92710000Y-68580000D02*
X86210000Y-68580000D01*
%TO.N,Net-(J1-Pin_35)*%
X69850000Y-53340000D02*
X69850000Y-97790000D01*
X78740000Y-54610000D02*
X77470000Y-53340000D01*
X77470000Y-53340000D02*
X69850000Y-53340000D01*
X71120000Y-99060000D02*
X73065000Y-99060000D01*
X69850000Y-97790000D02*
X71120000Y-99060000D01*
X73065000Y-99060000D02*
X74335000Y-97790000D01*
%TO.N,Net-(J1-Pin_16)*%
X92710000Y-85780000D02*
X86210000Y-85780000D01*
X86210000Y-85780000D02*
X79050000Y-78620000D01*
X79050000Y-78620000D02*
X73858654Y-78620000D01*
X73858654Y-78620000D02*
X72945000Y-77706346D01*
X72945000Y-77706346D02*
X72945000Y-76753654D01*
X71318654Y-76080000D02*
X70645000Y-75406346D01*
X72945000Y-76753654D02*
X72271346Y-76080000D01*
X72271346Y-76080000D02*
X71318654Y-76080000D01*
X70645000Y-75406346D02*
X70645000Y-73540000D01*
X70645000Y-73540000D02*
X71795000Y-72390000D01*
%TO.N,Net-(J1-Pin_18)*%
X92710000Y-77180000D02*
X86210000Y-77180000D01*
X86210000Y-77180000D02*
X85210000Y-76180000D01*
X85210000Y-76180000D02*
X73045000Y-76180000D01*
X73045000Y-76180000D02*
X71795000Y-74930000D01*
%TD*%
%TA.AperFunction,Conductor*%
%TO.N,GND*%
G36*
X94692539Y-51320185D02*
G01*
X94738294Y-51372989D01*
X94749500Y-51424500D01*
X94749500Y-106055500D01*
X94729815Y-106122539D01*
X94677011Y-106168294D01*
X94625500Y-106179500D01*
X69204500Y-106179500D01*
X69137461Y-106159815D01*
X69091706Y-106107011D01*
X69080500Y-106055500D01*
X69080500Y-98120960D01*
X69081360Y-98118029D01*
X69080640Y-98115059D01*
X69091143Y-98084713D01*
X69100185Y-98053921D01*
X69102493Y-98051920D01*
X69103493Y-98049033D01*
X69128735Y-98029181D01*
X69152989Y-98008166D01*
X69156011Y-98007731D01*
X69158414Y-98005842D01*
X69190375Y-98002790D01*
X69222147Y-97998222D01*
X69224926Y-97999491D01*
X69227968Y-97999201D01*
X69256501Y-98013911D01*
X69285703Y-98027247D01*
X69288173Y-98030239D01*
X69290070Y-98031217D01*
X69311887Y-98058960D01*
X69319359Y-98071902D01*
X69319360Y-98071904D01*
X69369479Y-98158714D01*
X69369481Y-98158717D01*
X69488349Y-98277585D01*
X69488355Y-98277590D01*
X70635147Y-99424382D01*
X70646285Y-99435522D01*
X70664404Y-99468711D01*
X70679762Y-99496837D01*
X70679761Y-99496841D01*
X70679765Y-99496848D01*
X70677092Y-99534166D01*
X70674778Y-99566529D01*
X70674774Y-99566536D01*
X70674774Y-99566539D01*
X70674769Y-99566545D01*
X70658915Y-99596079D01*
X70639949Y-99622183D01*
X70639948Y-99622185D01*
X70543444Y-99811585D01*
X70477753Y-100013760D01*
X70444500Y-100223713D01*
X70444500Y-100436286D01*
X70477753Y-100646239D01*
X70543444Y-100848414D01*
X70639951Y-101037820D01*
X70764890Y-101209786D01*
X70915213Y-101360109D01*
X71087182Y-101485050D01*
X71095946Y-101489516D01*
X71146742Y-101537491D01*
X71163536Y-101605312D01*
X71140998Y-101671447D01*
X71095946Y-101710484D01*
X71087182Y-101714949D01*
X70915213Y-101839890D01*
X70764890Y-101990213D01*
X70639951Y-102162179D01*
X70543444Y-102351585D01*
X70477753Y-102553760D01*
X70444500Y-102763713D01*
X70444500Y-102976286D01*
X70477753Y-103186239D01*
X70543444Y-103388414D01*
X70639951Y-103577820D01*
X70764890Y-103749786D01*
X70915213Y-103900109D01*
X71087179Y-104025048D01*
X71087181Y-104025049D01*
X71087184Y-104025051D01*
X71276588Y-104121557D01*
X71478757Y-104187246D01*
X71688713Y-104220500D01*
X71688714Y-104220500D01*
X71901286Y-104220500D01*
X71901287Y-104220500D01*
X72111243Y-104187246D01*
X72313412Y-104121557D01*
X72502816Y-104025051D01*
X72524789Y-104009086D01*
X72674786Y-103900109D01*
X72674788Y-103900106D01*
X72674792Y-103900104D01*
X72825104Y-103749792D01*
X72825106Y-103749788D01*
X72825109Y-103749786D01*
X72950048Y-103577820D01*
X72950047Y-103577820D01*
X72950051Y-103577816D01*
X72954514Y-103569054D01*
X73002488Y-103518259D01*
X73070308Y-103501463D01*
X73136444Y-103523999D01*
X73175486Y-103569056D01*
X73179951Y-103577820D01*
X73304890Y-103749786D01*
X73455213Y-103900109D01*
X73627179Y-104025048D01*
X73627181Y-104025049D01*
X73627184Y-104025051D01*
X73816588Y-104121557D01*
X74018757Y-104187246D01*
X74228713Y-104220500D01*
X74228714Y-104220500D01*
X74441286Y-104220500D01*
X74441287Y-104220500D01*
X74651243Y-104187246D01*
X74853412Y-104121557D01*
X75042816Y-104025051D01*
X75064789Y-104009086D01*
X75214786Y-103900109D01*
X75214788Y-103900106D01*
X75214792Y-103900104D01*
X75365104Y-103749792D01*
X75365106Y-103749788D01*
X75365109Y-103749786D01*
X75490048Y-103577820D01*
X75490047Y-103577820D01*
X75490051Y-103577816D01*
X75586557Y-103388412D01*
X75652246Y-103186243D01*
X75685500Y-102976287D01*
X75685500Y-102763713D01*
X75652246Y-102553757D01*
X75586557Y-102351588D01*
X75490051Y-102162184D01*
X75486480Y-102157268D01*
X75460632Y-102121691D01*
X75410097Y-102052135D01*
X83609500Y-102052135D01*
X83609500Y-104147870D01*
X83609501Y-104147876D01*
X83615908Y-104207483D01*
X83666202Y-104342328D01*
X83666206Y-104342335D01*
X83752452Y-104457544D01*
X83752455Y-104457547D01*
X83867664Y-104543793D01*
X83867671Y-104543797D01*
X84002517Y-104594091D01*
X84002516Y-104594091D01*
X84009444Y-104594835D01*
X84062127Y-104600500D01*
X87357872Y-104600499D01*
X87417483Y-104594091D01*
X87552331Y-104543796D01*
X87667546Y-104457546D01*
X87753796Y-104342331D01*
X87804091Y-104207483D01*
X87810500Y-104147873D01*
X87810499Y-102052128D01*
X87804091Y-101992517D01*
X87753796Y-101857669D01*
X87753795Y-101857668D01*
X87753793Y-101857664D01*
X87667547Y-101742455D01*
X87667544Y-101742452D01*
X87552335Y-101656206D01*
X87552328Y-101656202D01*
X87417482Y-101605908D01*
X87417483Y-101605908D01*
X87357883Y-101599501D01*
X87357881Y-101599500D01*
X87357873Y-101599500D01*
X87357864Y-101599500D01*
X84062129Y-101599500D01*
X84062123Y-101599501D01*
X84002516Y-101605908D01*
X83867671Y-101656202D01*
X83867664Y-101656206D01*
X83752455Y-101742452D01*
X83752452Y-101742455D01*
X83666206Y-101857664D01*
X83666202Y-101857671D01*
X83615908Y-101992517D01*
X83609501Y-102052116D01*
X83609501Y-102052123D01*
X83609500Y-102052135D01*
X75410097Y-102052135D01*
X75365109Y-101990213D01*
X75214786Y-101839890D01*
X75042820Y-101714951D01*
X75042115Y-101714591D01*
X75034054Y-101710485D01*
X74983259Y-101662512D01*
X74966463Y-101594692D01*
X74988999Y-101528556D01*
X75034054Y-101489515D01*
X75042816Y-101485051D01*
X75172862Y-101390568D01*
X75214786Y-101360109D01*
X75214788Y-101360106D01*
X75214792Y-101360104D01*
X75365104Y-101209792D01*
X75365106Y-101209788D01*
X75365109Y-101209786D01*
X75490048Y-101037820D01*
X75490047Y-101037820D01*
X75490051Y-101037816D01*
X75586557Y-100848412D01*
X75652246Y-100646243D01*
X75685500Y-100436287D01*
X75685500Y-100223713D01*
X75652246Y-100013757D01*
X75586557Y-99811588D01*
X75490051Y-99622184D01*
X75490049Y-99622181D01*
X75490048Y-99622179D01*
X75365109Y-99450213D01*
X75214786Y-99299890D01*
X75042820Y-99174951D01*
X75042115Y-99174591D01*
X75034054Y-99170485D01*
X74983259Y-99122512D01*
X74966463Y-99054692D01*
X74988999Y-98988556D01*
X75034054Y-98949515D01*
X75042816Y-98945051D01*
X75166097Y-98855483D01*
X75214786Y-98820109D01*
X75214788Y-98820106D01*
X75214792Y-98820104D01*
X75365104Y-98669792D01*
X75365106Y-98669788D01*
X75365109Y-98669786D01*
X75490048Y-98497820D01*
X75490047Y-98497820D01*
X75490051Y-98497816D01*
X75586557Y-98308412D01*
X75652246Y-98106243D01*
X75685500Y-97896287D01*
X75685500Y-97683713D01*
X75652246Y-97473757D01*
X75586557Y-97271588D01*
X75490051Y-97082184D01*
X75490049Y-97082181D01*
X75490048Y-97082179D01*
X75365109Y-96910213D01*
X75214786Y-96759890D01*
X75042820Y-96634951D01*
X75042115Y-96634591D01*
X75034054Y-96630485D01*
X74983259Y-96582512D01*
X74966463Y-96514692D01*
X74988999Y-96448556D01*
X75034054Y-96409515D01*
X75042816Y-96405051D01*
X75108200Y-96357547D01*
X75214786Y-96280109D01*
X75214788Y-96280106D01*
X75214792Y-96280104D01*
X75365104Y-96129792D01*
X75365106Y-96129788D01*
X75365109Y-96129786D01*
X75490048Y-95957820D01*
X75490047Y-95957820D01*
X75490051Y-95957816D01*
X75586557Y-95768412D01*
X75652246Y-95566243D01*
X75685500Y-95356287D01*
X75685500Y-95143713D01*
X75652246Y-94933757D01*
X75586557Y-94731588D01*
X75490051Y-94542184D01*
X75490049Y-94542181D01*
X75490048Y-94542179D01*
X75365109Y-94370213D01*
X75214786Y-94219890D01*
X75042820Y-94094951D01*
X75042115Y-94094591D01*
X75034054Y-94090485D01*
X75029590Y-94086268D01*
X75023692Y-94084560D01*
X75004490Y-94062563D01*
X74983259Y-94042512D01*
X74981782Y-94036550D01*
X74977744Y-94031924D01*
X74973482Y-94003033D01*
X74966463Y-93974692D01*
X74968443Y-93968879D01*
X74967547Y-93962803D01*
X74972371Y-93952135D01*
X76709500Y-93952135D01*
X76709500Y-96047870D01*
X76709501Y-96047876D01*
X76715908Y-96107483D01*
X76766202Y-96242328D01*
X76766206Y-96242335D01*
X76852452Y-96357544D01*
X76852455Y-96357547D01*
X76970198Y-96445690D01*
X77012069Y-96501623D01*
X77017053Y-96571315D01*
X76996205Y-96617841D01*
X76926659Y-96713563D01*
X76819433Y-96924003D01*
X76746446Y-97148631D01*
X76709500Y-97381902D01*
X76709500Y-97618097D01*
X76746446Y-97851368D01*
X76819433Y-98075996D01*
X76861582Y-98158717D01*
X76926657Y-98286433D01*
X77065483Y-98477510D01*
X77065485Y-98477512D01*
X77232490Y-98644517D01*
X77239603Y-98649685D01*
X77282266Y-98705017D01*
X77288242Y-98774630D01*
X77255634Y-98836424D01*
X77239603Y-98850315D01*
X77232490Y-98855482D01*
X77065485Y-99022487D01*
X77065485Y-99022488D01*
X77065483Y-99022490D01*
X77024831Y-99078443D01*
X76926657Y-99213566D01*
X76819433Y-99424003D01*
X76746446Y-99648631D01*
X76709500Y-99881902D01*
X76709500Y-100118097D01*
X76746446Y-100351368D01*
X76819433Y-100575996D01*
X76926519Y-100786163D01*
X76926657Y-100786433D01*
X77065483Y-100977510D01*
X77232490Y-101144517D01*
X77423567Y-101283343D01*
X77522991Y-101334002D01*
X77634003Y-101390566D01*
X77634005Y-101390566D01*
X77634008Y-101390568D01*
X77754412Y-101429689D01*
X77858631Y-101463553D01*
X78091903Y-101500500D01*
X78091908Y-101500500D01*
X78328097Y-101500500D01*
X78561368Y-101463553D01*
X78562870Y-101463065D01*
X78785992Y-101390568D01*
X78996433Y-101283343D01*
X79187510Y-101144517D01*
X79354517Y-100977510D01*
X79493343Y-100786433D01*
X79600568Y-100575992D01*
X79673553Y-100351368D01*
X79680579Y-100307007D01*
X79710500Y-100118097D01*
X79710500Y-99881947D01*
X91210000Y-99881947D01*
X91210000Y-100118052D01*
X91246934Y-100351247D01*
X91319897Y-100575802D01*
X91427087Y-100786174D01*
X91487338Y-100869104D01*
X91487340Y-100869105D01*
X92227037Y-100129408D01*
X92244075Y-100192993D01*
X92309901Y-100307007D01*
X92402993Y-100400099D01*
X92517007Y-100465925D01*
X92580590Y-100482962D01*
X91840893Y-101222658D01*
X91923828Y-101282914D01*
X92134197Y-101390102D01*
X92358752Y-101463065D01*
X92358751Y-101463065D01*
X92591948Y-101500000D01*
X92828052Y-101500000D01*
X93061247Y-101463065D01*
X93285802Y-101390102D01*
X93496163Y-101282918D01*
X93496169Y-101282914D01*
X93579104Y-101222658D01*
X93579105Y-101222658D01*
X92839408Y-100482962D01*
X92902993Y-100465925D01*
X93017007Y-100400099D01*
X93110099Y-100307007D01*
X93175925Y-100192993D01*
X93192962Y-100129408D01*
X93932658Y-100869105D01*
X93932658Y-100869104D01*
X93992914Y-100786169D01*
X93992918Y-100786163D01*
X94100102Y-100575802D01*
X94173065Y-100351247D01*
X94210000Y-100118052D01*
X94210000Y-99881947D01*
X94173065Y-99648752D01*
X94100102Y-99424197D01*
X93992914Y-99213828D01*
X93932658Y-99130894D01*
X93932658Y-99130893D01*
X93192962Y-99870590D01*
X93175925Y-99807007D01*
X93110099Y-99692993D01*
X93017007Y-99599901D01*
X92902993Y-99534075D01*
X92839409Y-99517037D01*
X93579105Y-98777340D01*
X93579104Y-98777338D01*
X93496174Y-98717087D01*
X93285802Y-98609897D01*
X93061247Y-98536934D01*
X93061248Y-98536934D01*
X92828052Y-98500000D01*
X92591948Y-98500000D01*
X92358752Y-98536934D01*
X92134197Y-98609897D01*
X91923830Y-98717084D01*
X91840894Y-98777340D01*
X92580591Y-99517037D01*
X92517007Y-99534075D01*
X92402993Y-99599901D01*
X92309901Y-99692993D01*
X92244075Y-99807007D01*
X92227037Y-99870591D01*
X91487340Y-99130894D01*
X91427084Y-99213830D01*
X91319897Y-99424197D01*
X91246934Y-99648752D01*
X91210000Y-99881947D01*
X79710500Y-99881947D01*
X79710500Y-99881902D01*
X79673553Y-99648631D01*
X79636331Y-99534075D01*
X79600568Y-99424008D01*
X79600566Y-99424005D01*
X79600566Y-99424003D01*
X79493477Y-99213830D01*
X79493343Y-99213567D01*
X79354517Y-99022490D01*
X79187510Y-98855483D01*
X79173851Y-98845559D01*
X79167982Y-98839996D01*
X79154325Y-98816502D01*
X79137735Y-98794988D01*
X79137026Y-98786744D01*
X79132868Y-98779590D01*
X79134080Y-98752441D01*
X79131756Y-98725375D01*
X79135616Y-98718058D01*
X79135986Y-98709790D01*
X79151684Y-98687606D01*
X79164362Y-98663580D01*
X79175543Y-98653891D01*
X79176346Y-98652757D01*
X79177294Y-98652374D01*
X79180401Y-98649682D01*
X79180500Y-98649609D01*
X79187510Y-98644517D01*
X79354517Y-98477510D01*
X79493343Y-98286433D01*
X79600568Y-98075992D01*
X79673553Y-97851368D01*
X79700107Y-97683713D01*
X79710500Y-97618097D01*
X79710500Y-97381902D01*
X79673553Y-97148631D01*
X79600566Y-96924003D01*
X79516949Y-96759896D01*
X79493343Y-96713567D01*
X79423793Y-96617840D01*
X79400314Y-96552036D01*
X79416139Y-96483982D01*
X79449801Y-96445689D01*
X79452328Y-96443796D01*
X79452331Y-96443796D01*
X79567546Y-96357546D01*
X79653796Y-96242331D01*
X79704091Y-96107483D01*
X79710500Y-96047873D01*
X79710499Y-94881902D01*
X91209500Y-94881902D01*
X91209500Y-95118097D01*
X91246446Y-95351368D01*
X91319433Y-95575996D01*
X91388553Y-95711650D01*
X91426657Y-95786433D01*
X91565483Y-95977510D01*
X91732490Y-96144517D01*
X91923567Y-96283343D01*
X92022991Y-96334002D01*
X92134003Y-96390566D01*
X92134005Y-96390566D01*
X92134008Y-96390568D01*
X92192318Y-96409514D01*
X92358631Y-96463553D01*
X92591903Y-96500500D01*
X92591908Y-96500500D01*
X92828097Y-96500500D01*
X93061368Y-96463553D01*
X93080025Y-96457491D01*
X93285992Y-96390568D01*
X93496433Y-96283343D01*
X93687510Y-96144517D01*
X93854517Y-95977510D01*
X93993343Y-95786433D01*
X94100568Y-95575992D01*
X94173553Y-95351368D01*
X94210500Y-95118097D01*
X94210500Y-94881902D01*
X94173553Y-94648631D01*
X94100566Y-94424003D01*
X94044002Y-94312991D01*
X93993343Y-94213567D01*
X93854517Y-94022490D01*
X93687510Y-93855483D01*
X93496433Y-93716657D01*
X93285996Y-93609433D01*
X93061368Y-93536446D01*
X92828097Y-93499500D01*
X92828092Y-93499500D01*
X92591908Y-93499500D01*
X92591903Y-93499500D01*
X92358631Y-93536446D01*
X92134003Y-93609433D01*
X91923566Y-93716657D01*
X91867119Y-93757669D01*
X91732490Y-93855483D01*
X91732488Y-93855485D01*
X91732487Y-93855485D01*
X91565485Y-94022487D01*
X91565485Y-94022488D01*
X91565483Y-94022490D01*
X91516082Y-94090484D01*
X91426657Y-94213566D01*
X91319433Y-94424003D01*
X91246446Y-94648631D01*
X91209500Y-94881902D01*
X79710499Y-94881902D01*
X79710499Y-93952128D01*
X79704091Y-93892517D01*
X79695512Y-93869516D01*
X79653797Y-93757671D01*
X79653793Y-93757664D01*
X79567547Y-93642455D01*
X79567544Y-93642452D01*
X79452335Y-93556206D01*
X79452328Y-93556202D01*
X79317482Y-93505908D01*
X79317483Y-93505908D01*
X79257883Y-93499501D01*
X79257881Y-93499500D01*
X79257873Y-93499500D01*
X79257864Y-93499500D01*
X77162129Y-93499500D01*
X77162123Y-93499501D01*
X77102516Y-93505908D01*
X76967671Y-93556202D01*
X76967664Y-93556206D01*
X76852455Y-93642452D01*
X76852452Y-93642455D01*
X76766206Y-93757664D01*
X76766202Y-93757671D01*
X76715908Y-93892517D01*
X76711213Y-93936193D01*
X76709501Y-93952123D01*
X76709500Y-93952135D01*
X74972371Y-93952135D01*
X74979581Y-93936193D01*
X74988999Y-93908556D01*
X74994452Y-93903311D01*
X74996339Y-93899141D01*
X75009727Y-93888624D01*
X75022928Y-93875931D01*
X75028324Y-93872434D01*
X75042816Y-93865051D01*
X75088055Y-93832182D01*
X75214786Y-93740109D01*
X75214788Y-93740106D01*
X75214792Y-93740104D01*
X75365104Y-93589792D01*
X75365106Y-93589788D01*
X75365109Y-93589786D01*
X75490048Y-93417820D01*
X75490047Y-93417820D01*
X75490051Y-93417816D01*
X75586557Y-93228412D01*
X75652246Y-93026243D01*
X75685500Y-92816287D01*
X75685500Y-92603713D01*
X75652246Y-92393757D01*
X75586557Y-92191588D01*
X75490051Y-92002184D01*
X75490049Y-92002181D01*
X75490048Y-92002179D01*
X75365109Y-91830213D01*
X75214786Y-91679890D01*
X75042820Y-91554951D01*
X75042115Y-91554591D01*
X75034054Y-91550485D01*
X74983259Y-91502512D01*
X74966463Y-91434692D01*
X74988999Y-91368556D01*
X75034054Y-91329515D01*
X75042816Y-91325051D01*
X75064789Y-91309086D01*
X75214786Y-91200109D01*
X75214788Y-91200106D01*
X75214792Y-91200104D01*
X75365104Y-91049792D01*
X75365106Y-91049788D01*
X75365109Y-91049786D01*
X75490048Y-90877820D01*
X75490047Y-90877820D01*
X75490051Y-90877816D01*
X75503136Y-90852135D01*
X83609500Y-90852135D01*
X83609500Y-92947870D01*
X83609501Y-92947876D01*
X83615908Y-93007483D01*
X83666202Y-93142328D01*
X83666206Y-93142335D01*
X83752452Y-93257544D01*
X83752455Y-93257547D01*
X83867664Y-93343793D01*
X83867671Y-93343797D01*
X84002517Y-93394091D01*
X84002516Y-93394091D01*
X84009444Y-93394835D01*
X84062127Y-93400500D01*
X87357872Y-93400499D01*
X87417483Y-93394091D01*
X87552331Y-93343796D01*
X87667546Y-93257546D01*
X87753796Y-93142331D01*
X87804091Y-93007483D01*
X87810500Y-92947873D01*
X87810499Y-90852128D01*
X87804091Y-90792517D01*
X87765262Y-90688412D01*
X87753797Y-90657671D01*
X87753793Y-90657664D01*
X87667547Y-90542455D01*
X87667544Y-90542452D01*
X87552335Y-90456206D01*
X87552328Y-90456202D01*
X87417482Y-90405908D01*
X87417483Y-90405908D01*
X87357883Y-90399501D01*
X87357881Y-90399500D01*
X87357873Y-90399500D01*
X87357864Y-90399500D01*
X84062129Y-90399500D01*
X84062123Y-90399501D01*
X84002516Y-90405908D01*
X83867671Y-90456202D01*
X83867664Y-90456206D01*
X83752455Y-90542452D01*
X83752452Y-90542455D01*
X83666206Y-90657664D01*
X83666202Y-90657671D01*
X83615908Y-90792517D01*
X83610781Y-90840209D01*
X83609501Y-90852123D01*
X83609500Y-90852135D01*
X75503136Y-90852135D01*
X75586557Y-90688412D01*
X75652246Y-90486243D01*
X75685500Y-90276287D01*
X75685500Y-90063713D01*
X75652246Y-89853757D01*
X75586557Y-89651588D01*
X75490051Y-89462184D01*
X75490049Y-89462181D01*
X75490048Y-89462179D01*
X75365109Y-89290213D01*
X75214786Y-89139890D01*
X75042820Y-89014951D01*
X75042115Y-89014591D01*
X75034054Y-89010485D01*
X74983259Y-88962512D01*
X74966463Y-88894692D01*
X74988999Y-88828556D01*
X75034054Y-88789515D01*
X75042816Y-88785051D01*
X75064789Y-88769086D01*
X75214786Y-88660109D01*
X75214788Y-88660106D01*
X75214792Y-88660104D01*
X75365104Y-88509792D01*
X75365106Y-88509788D01*
X75365109Y-88509786D01*
X75490048Y-88337820D01*
X75490047Y-88337820D01*
X75490051Y-88337816D01*
X75586557Y-88148412D01*
X75652246Y-87946243D01*
X75685500Y-87736287D01*
X75685500Y-87523713D01*
X75652246Y-87313757D01*
X75586557Y-87111588D01*
X75490051Y-86922184D01*
X75490049Y-86922181D01*
X75490048Y-86922179D01*
X75365109Y-86750213D01*
X75214786Y-86599890D01*
X75042820Y-86474951D01*
X75042115Y-86474591D01*
X75034054Y-86470485D01*
X74983259Y-86422512D01*
X74966463Y-86354692D01*
X74988999Y-86288556D01*
X75034054Y-86249515D01*
X75042816Y-86245051D01*
X75064789Y-86229086D01*
X75214786Y-86120109D01*
X75214788Y-86120106D01*
X75214792Y-86120104D01*
X75365104Y-85969792D01*
X75365106Y-85969788D01*
X75365109Y-85969786D01*
X75490048Y-85797820D01*
X75490047Y-85797820D01*
X75490051Y-85797816D01*
X75586557Y-85608412D01*
X75652246Y-85406243D01*
X75685500Y-85196287D01*
X75685500Y-84983713D01*
X75652246Y-84773757D01*
X75586557Y-84571588D01*
X75490051Y-84382184D01*
X75490049Y-84382181D01*
X75490048Y-84382179D01*
X75365109Y-84210213D01*
X75214786Y-84059890D01*
X75042820Y-83934951D01*
X75042115Y-83934591D01*
X75034054Y-83930485D01*
X74983259Y-83882512D01*
X74966463Y-83814692D01*
X74988999Y-83748556D01*
X75034054Y-83709515D01*
X75042816Y-83705051D01*
X75064789Y-83689086D01*
X75214786Y-83580109D01*
X75214788Y-83580106D01*
X75214792Y-83580104D01*
X75365104Y-83429792D01*
X75365106Y-83429788D01*
X75365109Y-83429786D01*
X75490048Y-83257820D01*
X75490047Y-83257820D01*
X75490051Y-83257816D01*
X75586557Y-83068412D01*
X75652246Y-82866243D01*
X75685500Y-82656287D01*
X75685500Y-82443713D01*
X75652246Y-82233757D01*
X75586557Y-82031588D01*
X75490051Y-81842184D01*
X75490049Y-81842181D01*
X75490048Y-81842179D01*
X75365109Y-81670213D01*
X75214786Y-81519890D01*
X75042820Y-81394951D01*
X75042115Y-81394591D01*
X75034054Y-81390485D01*
X74983259Y-81342512D01*
X74966463Y-81274692D01*
X74988999Y-81208556D01*
X75034054Y-81169515D01*
X75042816Y-81165051D01*
X75064789Y-81149086D01*
X75214786Y-81040109D01*
X75214788Y-81040106D01*
X75214792Y-81040104D01*
X75365104Y-80889792D01*
X75365106Y-80889788D01*
X75365109Y-80889786D01*
X75490048Y-80717820D01*
X75490047Y-80717820D01*
X75490051Y-80717816D01*
X75586557Y-80528412D01*
X75652246Y-80326243D01*
X75685500Y-80116287D01*
X75685500Y-79903713D01*
X75652246Y-79693757D01*
X75586557Y-79491588D01*
X75540296Y-79400795D01*
X75527400Y-79332125D01*
X75553677Y-79267385D01*
X75610783Y-79227128D01*
X75650781Y-79220500D01*
X78749903Y-79220500D01*
X78816942Y-79240185D01*
X78837584Y-79256819D01*
X84757200Y-85176435D01*
X84790685Y-85237758D01*
X84787450Y-85302433D01*
X84746447Y-85428628D01*
X84709500Y-85661902D01*
X84709500Y-85898097D01*
X84746446Y-86131368D01*
X84819433Y-86355996D01*
X84926657Y-86566433D01*
X85065483Y-86757510D01*
X85232490Y-86924517D01*
X85423567Y-87063343D01*
X85518247Y-87111585D01*
X85634003Y-87170566D01*
X85634005Y-87170566D01*
X85634008Y-87170568D01*
X85754412Y-87209689D01*
X85858631Y-87243553D01*
X86091903Y-87280500D01*
X86091908Y-87280500D01*
X86328097Y-87280500D01*
X86561368Y-87243553D01*
X86785992Y-87170568D01*
X86996433Y-87063343D01*
X87187510Y-86924517D01*
X87354517Y-86757510D01*
X87493343Y-86566433D01*
X87553583Y-86448204D01*
X87601558Y-86397409D01*
X87664068Y-86380500D01*
X91255932Y-86380500D01*
X91322971Y-86400185D01*
X91366416Y-86448203D01*
X91426657Y-86566433D01*
X91565483Y-86757510D01*
X91732490Y-86924517D01*
X91923567Y-87063343D01*
X92018247Y-87111585D01*
X92134003Y-87170566D01*
X92134005Y-87170566D01*
X92134008Y-87170568D01*
X92254412Y-87209689D01*
X92358631Y-87243553D01*
X92591903Y-87280500D01*
X92591908Y-87280500D01*
X92828097Y-87280500D01*
X93061368Y-87243553D01*
X93285992Y-87170568D01*
X93496433Y-87063343D01*
X93687510Y-86924517D01*
X93854517Y-86757510D01*
X93993343Y-86566433D01*
X94100568Y-86355992D01*
X94173553Y-86131368D01*
X94199145Y-85969786D01*
X94210500Y-85898097D01*
X94210500Y-85661902D01*
X94173553Y-85428631D01*
X94110368Y-85234169D01*
X94100568Y-85204008D01*
X94100566Y-85204005D01*
X94100566Y-85204003D01*
X93993342Y-84993566D01*
X93854517Y-84802490D01*
X93687510Y-84635483D01*
X93496433Y-84496657D01*
X93285996Y-84389433D01*
X93061368Y-84316446D01*
X92828097Y-84279500D01*
X92828092Y-84279500D01*
X92591908Y-84279500D01*
X92591903Y-84279500D01*
X92358631Y-84316446D01*
X92134003Y-84389433D01*
X91923566Y-84496657D01*
X91820438Y-84571585D01*
X91732490Y-84635483D01*
X91732488Y-84635485D01*
X91732487Y-84635485D01*
X91565485Y-84802487D01*
X91565485Y-84802488D01*
X91565483Y-84802490D01*
X91505862Y-84884550D01*
X91426657Y-84993566D01*
X91366417Y-85111795D01*
X91318442Y-85162591D01*
X91255932Y-85179500D01*
X87664068Y-85179500D01*
X87597029Y-85159815D01*
X87553583Y-85111795D01*
X87493342Y-84993566D01*
X87354517Y-84802490D01*
X87187510Y-84635483D01*
X86996433Y-84496657D01*
X86785996Y-84389433D01*
X86561368Y-84316446D01*
X86328097Y-84279500D01*
X86328092Y-84279500D01*
X86091908Y-84279500D01*
X86091903Y-84279500D01*
X85858628Y-84316447D01*
X85732433Y-84357450D01*
X85662592Y-84359445D01*
X85606435Y-84327200D01*
X82441182Y-81161947D01*
X84710000Y-81161947D01*
X84710000Y-81398052D01*
X84746934Y-81631247D01*
X84819897Y-81855802D01*
X84927087Y-82066174D01*
X84987338Y-82149104D01*
X84987340Y-82149105D01*
X85686212Y-81450233D01*
X85697482Y-81492292D01*
X85769890Y-81617708D01*
X85872292Y-81720110D01*
X85997708Y-81792518D01*
X86039765Y-81803787D01*
X85340893Y-82502658D01*
X85423828Y-82562914D01*
X85634197Y-82670102D01*
X85858752Y-82743065D01*
X85858751Y-82743065D01*
X86091948Y-82780000D01*
X86328052Y-82780000D01*
X86561247Y-82743065D01*
X86785802Y-82670102D01*
X86996163Y-82562918D01*
X86996169Y-82562914D01*
X87079104Y-82502658D01*
X87079105Y-82502658D01*
X86380233Y-81803787D01*
X86422292Y-81792518D01*
X86547708Y-81720110D01*
X86650110Y-81617708D01*
X86722518Y-81492292D01*
X86733787Y-81450234D01*
X87432658Y-82149105D01*
X87432658Y-82149104D01*
X87492914Y-82066169D01*
X87492918Y-82066163D01*
X87600102Y-81855802D01*
X87673065Y-81631247D01*
X87710000Y-81398052D01*
X87710000Y-81161947D01*
X91210000Y-81161947D01*
X91210000Y-81398052D01*
X91246934Y-81631247D01*
X91319897Y-81855802D01*
X91427087Y-82066174D01*
X91487338Y-82149104D01*
X91487340Y-82149105D01*
X92186212Y-81450233D01*
X92197482Y-81492292D01*
X92269890Y-81617708D01*
X92372292Y-81720110D01*
X92497708Y-81792518D01*
X92539765Y-81803787D01*
X91840893Y-82502658D01*
X91923828Y-82562914D01*
X92134197Y-82670102D01*
X92358752Y-82743065D01*
X92358751Y-82743065D01*
X92591948Y-82780000D01*
X92828052Y-82780000D01*
X93061247Y-82743065D01*
X93285802Y-82670102D01*
X93496163Y-82562918D01*
X93496169Y-82562914D01*
X93579104Y-82502658D01*
X93579105Y-82502658D01*
X92880233Y-81803787D01*
X92922292Y-81792518D01*
X93047708Y-81720110D01*
X93150110Y-81617708D01*
X93222518Y-81492292D01*
X93233787Y-81450233D01*
X93932658Y-82149105D01*
X93932658Y-82149104D01*
X93992914Y-82066169D01*
X93992918Y-82066163D01*
X94100102Y-81855802D01*
X94173065Y-81631247D01*
X94210000Y-81398052D01*
X94210000Y-81161947D01*
X94173065Y-80928752D01*
X94100102Y-80704197D01*
X93992914Y-80493828D01*
X93932658Y-80410894D01*
X93932658Y-80410893D01*
X93233787Y-81109765D01*
X93222518Y-81067708D01*
X93150110Y-80942292D01*
X93047708Y-80839890D01*
X92922292Y-80767482D01*
X92880234Y-80756212D01*
X93579105Y-80057340D01*
X93579104Y-80057338D01*
X93496174Y-79997087D01*
X93285802Y-79889897D01*
X93061247Y-79816934D01*
X93061248Y-79816934D01*
X92828052Y-79780000D01*
X92591948Y-79780000D01*
X92358752Y-79816934D01*
X92134197Y-79889897D01*
X91923830Y-79997084D01*
X91840894Y-80057340D01*
X92539766Y-80756212D01*
X92497708Y-80767482D01*
X92372292Y-80839890D01*
X92269890Y-80942292D01*
X92197482Y-81067708D01*
X92186212Y-81109766D01*
X91487340Y-80410894D01*
X91427084Y-80493830D01*
X91319897Y-80704197D01*
X91246934Y-80928752D01*
X91210000Y-81161947D01*
X87710000Y-81161947D01*
X87673065Y-80928752D01*
X87600102Y-80704197D01*
X87492914Y-80493828D01*
X87432658Y-80410894D01*
X87432658Y-80410893D01*
X86733787Y-81109765D01*
X86722518Y-81067708D01*
X86650110Y-80942292D01*
X86547708Y-80839890D01*
X86422292Y-80767482D01*
X86380234Y-80756212D01*
X87079105Y-80057340D01*
X87079104Y-80057339D01*
X86996174Y-79997087D01*
X86785802Y-79889897D01*
X86561247Y-79816934D01*
X86561248Y-79816934D01*
X86328052Y-79780000D01*
X86091948Y-79780000D01*
X85858752Y-79816934D01*
X85634197Y-79889897D01*
X85423830Y-79997084D01*
X85340894Y-80057340D01*
X86039766Y-80756212D01*
X85997708Y-80767482D01*
X85872292Y-80839890D01*
X85769890Y-80942292D01*
X85697482Y-81067708D01*
X85686212Y-81109766D01*
X84987340Y-80410894D01*
X84927084Y-80493830D01*
X84819897Y-80704197D01*
X84746934Y-80928752D01*
X84710000Y-81161947D01*
X82441182Y-81161947D01*
X79537590Y-78258355D01*
X79537588Y-78258352D01*
X79418717Y-78139481D01*
X79418709Y-78139475D01*
X79307141Y-78075062D01*
X79307140Y-78075061D01*
X79289318Y-78064772D01*
X79281785Y-78060423D01*
X79129057Y-78019499D01*
X78970943Y-78019499D01*
X78963347Y-78019499D01*
X78963331Y-78019500D01*
X75747127Y-78019500D01*
X75680088Y-77999815D01*
X75634333Y-77947011D01*
X75624389Y-77877853D01*
X75629196Y-77857182D01*
X75632113Y-77848205D01*
X75652246Y-77786243D01*
X75685500Y-77576287D01*
X75685500Y-77363713D01*
X75652246Y-77153757D01*
X75586557Y-76951588D01*
X75586556Y-76951586D01*
X75585051Y-76946954D01*
X75586131Y-76946602D01*
X75579240Y-76882479D01*
X75610517Y-76820001D01*
X75670608Y-76784351D01*
X75701269Y-76780500D01*
X84608885Y-76780500D01*
X84675924Y-76800185D01*
X84721679Y-76852989D01*
X84731623Y-76922147D01*
X84731358Y-76923898D01*
X84709500Y-77061902D01*
X84709500Y-77298097D01*
X84746446Y-77531368D01*
X84819433Y-77755996D01*
X84881523Y-77877853D01*
X84926657Y-77966433D01*
X85065483Y-78157510D01*
X85232490Y-78324517D01*
X85423567Y-78463343D01*
X85522991Y-78514002D01*
X85634003Y-78570566D01*
X85634005Y-78570566D01*
X85634008Y-78570568D01*
X85754412Y-78609689D01*
X85858631Y-78643553D01*
X86091903Y-78680500D01*
X86091908Y-78680500D01*
X86328097Y-78680500D01*
X86561368Y-78643553D01*
X86618320Y-78625048D01*
X86785992Y-78570568D01*
X86996433Y-78463343D01*
X87187510Y-78324517D01*
X87354517Y-78157510D01*
X87493343Y-77966433D01*
X87553583Y-77848204D01*
X87601558Y-77797409D01*
X87664068Y-77780500D01*
X91255932Y-77780500D01*
X91322971Y-77800185D01*
X91366416Y-77848203D01*
X91426657Y-77966433D01*
X91565483Y-78157510D01*
X91732490Y-78324517D01*
X91923567Y-78463343D01*
X92022991Y-78514002D01*
X92134003Y-78570566D01*
X92134005Y-78570566D01*
X92134008Y-78570568D01*
X92254412Y-78609689D01*
X92358631Y-78643553D01*
X92591903Y-78680500D01*
X92591908Y-78680500D01*
X92828097Y-78680500D01*
X93061368Y-78643553D01*
X93118320Y-78625048D01*
X93285992Y-78570568D01*
X93496433Y-78463343D01*
X93687510Y-78324517D01*
X93854517Y-78157510D01*
X93993343Y-77966433D01*
X94100568Y-77755992D01*
X94173553Y-77531368D01*
X94206107Y-77325830D01*
X94210500Y-77298097D01*
X94210500Y-77061902D01*
X94173553Y-76828631D01*
X94137315Y-76717104D01*
X94100568Y-76604008D01*
X94100566Y-76604005D01*
X94100566Y-76604003D01*
X94026333Y-76458314D01*
X93993343Y-76393567D01*
X93854517Y-76202490D01*
X93687510Y-76035483D01*
X93496433Y-75896657D01*
X93285996Y-75789433D01*
X93061368Y-75716446D01*
X92828097Y-75679500D01*
X92828092Y-75679500D01*
X92591908Y-75679500D01*
X92591903Y-75679500D01*
X92358631Y-75716446D01*
X92134003Y-75789433D01*
X91923566Y-75896657D01*
X91814550Y-75975862D01*
X91732490Y-76035483D01*
X91732488Y-76035485D01*
X91732487Y-76035485D01*
X91565485Y-76202487D01*
X91565485Y-76202488D01*
X91565483Y-76202490D01*
X91539898Y-76237705D01*
X91426657Y-76393566D01*
X91366417Y-76511795D01*
X91318442Y-76562591D01*
X91255932Y-76579500D01*
X87664068Y-76579500D01*
X87597029Y-76559815D01*
X87553583Y-76511795D01*
X87526333Y-76458314D01*
X87493343Y-76393567D01*
X87354517Y-76202490D01*
X87187510Y-76035483D01*
X86996433Y-75896657D01*
X86785996Y-75789433D01*
X86561368Y-75716446D01*
X86328097Y-75679500D01*
X86328092Y-75679500D01*
X86091908Y-75679500D01*
X86091903Y-75679500D01*
X85858630Y-75716447D01*
X85858627Y-75716447D01*
X85732435Y-75757450D01*
X85662594Y-75759445D01*
X85623302Y-75741309D01*
X85614241Y-75735005D01*
X85578716Y-75699480D01*
X85491904Y-75649360D01*
X85441785Y-75620423D01*
X85289057Y-75579499D01*
X85130943Y-75579499D01*
X85123347Y-75579499D01*
X85123331Y-75579500D01*
X75714635Y-75579500D01*
X75647596Y-75559815D01*
X75601841Y-75507011D01*
X75591897Y-75437853D01*
X75596704Y-75417182D01*
X75652246Y-75246243D01*
X75685500Y-75036287D01*
X75685500Y-74823713D01*
X75652246Y-74613757D01*
X75586557Y-74411588D01*
X75490051Y-74222184D01*
X75490049Y-74222181D01*
X75490048Y-74222179D01*
X75365109Y-74050213D01*
X75214786Y-73899890D01*
X75042820Y-73774951D01*
X75042115Y-73774591D01*
X75034054Y-73770485D01*
X74983259Y-73722512D01*
X74966463Y-73654692D01*
X74988999Y-73588556D01*
X75034054Y-73549515D01*
X75042816Y-73545051D01*
X75151397Y-73466163D01*
X75214786Y-73420109D01*
X75214788Y-73420106D01*
X75214792Y-73420104D01*
X75365104Y-73269792D01*
X75365106Y-73269788D01*
X75365109Y-73269786D01*
X75423661Y-73189193D01*
X75490051Y-73097816D01*
X75490349Y-73097230D01*
X75510235Y-73058205D01*
X75558209Y-73007409D01*
X75620719Y-72990500D01*
X82313331Y-72990500D01*
X82313347Y-72990501D01*
X82320943Y-72990501D01*
X82479054Y-72990501D01*
X82479057Y-72990501D01*
X82631785Y-72949577D01*
X82681904Y-72920639D01*
X82768716Y-72870520D01*
X82880520Y-72758716D01*
X82880520Y-72758714D01*
X82890728Y-72748507D01*
X82890730Y-72748504D01*
X83077287Y-72561947D01*
X84710000Y-72561947D01*
X84710000Y-72798052D01*
X84746934Y-73031247D01*
X84819897Y-73255802D01*
X84927087Y-73466174D01*
X84987338Y-73549104D01*
X84987340Y-73549105D01*
X85686212Y-72850233D01*
X85697482Y-72892292D01*
X85769890Y-73017708D01*
X85872292Y-73120110D01*
X85997708Y-73192518D01*
X86039765Y-73203787D01*
X85340893Y-73902658D01*
X85423828Y-73962914D01*
X85634197Y-74070102D01*
X85858752Y-74143065D01*
X85858751Y-74143065D01*
X86091948Y-74180000D01*
X86328052Y-74180000D01*
X86561247Y-74143065D01*
X86785802Y-74070102D01*
X86996163Y-73962918D01*
X86996169Y-73962914D01*
X87079104Y-73902658D01*
X87079105Y-73902658D01*
X86380233Y-73203787D01*
X86422292Y-73192518D01*
X86547708Y-73120110D01*
X86650110Y-73017708D01*
X86722518Y-72892292D01*
X86733787Y-72850234D01*
X87432658Y-73549105D01*
X87432658Y-73549104D01*
X87492914Y-73466169D01*
X87492918Y-73466163D01*
X87600102Y-73255802D01*
X87673065Y-73031247D01*
X87710000Y-72798052D01*
X87710000Y-72561947D01*
X91210000Y-72561947D01*
X91210000Y-72798052D01*
X91246934Y-73031247D01*
X91319897Y-73255802D01*
X91427087Y-73466174D01*
X91487338Y-73549104D01*
X91487340Y-73549105D01*
X92186212Y-72850233D01*
X92197482Y-72892292D01*
X92269890Y-73017708D01*
X92372292Y-73120110D01*
X92497708Y-73192518D01*
X92539765Y-73203787D01*
X91840893Y-73902658D01*
X91923828Y-73962914D01*
X92134197Y-74070102D01*
X92358752Y-74143065D01*
X92358751Y-74143065D01*
X92591948Y-74180000D01*
X92828052Y-74180000D01*
X93061247Y-74143065D01*
X93285802Y-74070102D01*
X93496163Y-73962918D01*
X93496169Y-73962914D01*
X93579104Y-73902658D01*
X93579105Y-73902658D01*
X92880233Y-73203787D01*
X92922292Y-73192518D01*
X93047708Y-73120110D01*
X93150110Y-73017708D01*
X93222518Y-72892292D01*
X93233787Y-72850233D01*
X93932658Y-73549105D01*
X93932658Y-73549104D01*
X93992914Y-73466169D01*
X93992918Y-73466163D01*
X94100102Y-73255802D01*
X94173065Y-73031247D01*
X94210000Y-72798052D01*
X94210000Y-72561947D01*
X94173065Y-72328752D01*
X94100102Y-72104197D01*
X93992914Y-71893828D01*
X93932658Y-71810894D01*
X93932658Y-71810893D01*
X93233787Y-72509765D01*
X93222518Y-72467708D01*
X93150110Y-72342292D01*
X93047708Y-72239890D01*
X92922292Y-72167482D01*
X92880234Y-72156212D01*
X93579105Y-71457340D01*
X93579104Y-71457338D01*
X93496174Y-71397087D01*
X93285802Y-71289897D01*
X93061247Y-71216934D01*
X93061248Y-71216934D01*
X92828052Y-71180000D01*
X92591948Y-71180000D01*
X92358752Y-71216934D01*
X92134197Y-71289897D01*
X91923830Y-71397084D01*
X91840894Y-71457340D01*
X92539766Y-72156212D01*
X92497708Y-72167482D01*
X92372292Y-72239890D01*
X92269890Y-72342292D01*
X92197482Y-72467708D01*
X92186212Y-72509766D01*
X91487340Y-71810894D01*
X91427084Y-71893830D01*
X91319897Y-72104197D01*
X91246934Y-72328752D01*
X91210000Y-72561947D01*
X87710000Y-72561947D01*
X87673065Y-72328752D01*
X87600102Y-72104197D01*
X87492914Y-71893828D01*
X87432658Y-71810894D01*
X87432658Y-71810893D01*
X86733787Y-72509765D01*
X86722518Y-72467708D01*
X86650110Y-72342292D01*
X86547708Y-72239890D01*
X86422292Y-72167482D01*
X86380234Y-72156212D01*
X87079105Y-71457340D01*
X87079104Y-71457339D01*
X86996174Y-71397087D01*
X86785802Y-71289897D01*
X86561247Y-71216934D01*
X86561248Y-71216934D01*
X86328052Y-71180000D01*
X86091948Y-71180000D01*
X85858752Y-71216934D01*
X85634197Y-71289897D01*
X85423830Y-71397084D01*
X85340894Y-71457340D01*
X86039766Y-72156212D01*
X85997708Y-72167482D01*
X85872292Y-72239890D01*
X85769890Y-72342292D01*
X85697482Y-72467708D01*
X85686212Y-72509766D01*
X84987340Y-71810894D01*
X84927084Y-71893830D01*
X84819897Y-72104197D01*
X84746934Y-72328752D01*
X84710000Y-72561947D01*
X83077287Y-72561947D01*
X85606437Y-70032796D01*
X85667758Y-69999313D01*
X85732433Y-70002547D01*
X85858632Y-70043553D01*
X85946110Y-70057408D01*
X86091903Y-70080500D01*
X86091908Y-70080500D01*
X86328097Y-70080500D01*
X86561368Y-70043553D01*
X86594468Y-70032798D01*
X86785992Y-69970568D01*
X86996433Y-69863343D01*
X87187510Y-69724517D01*
X87354517Y-69557510D01*
X87493343Y-69366433D01*
X87553583Y-69248204D01*
X87601558Y-69197409D01*
X87664068Y-69180500D01*
X91255932Y-69180500D01*
X91322971Y-69200185D01*
X91366416Y-69248203D01*
X91426657Y-69366433D01*
X91565483Y-69557510D01*
X91732490Y-69724517D01*
X91923567Y-69863343D01*
X92022991Y-69914002D01*
X92134003Y-69970566D01*
X92134005Y-69970566D01*
X92134008Y-69970568D01*
X92222476Y-69999313D01*
X92358631Y-70043553D01*
X92591903Y-70080500D01*
X92591908Y-70080500D01*
X92828097Y-70080500D01*
X93061368Y-70043553D01*
X93094468Y-70032798D01*
X93285992Y-69970568D01*
X93496433Y-69863343D01*
X93687510Y-69724517D01*
X93854517Y-69557510D01*
X93993343Y-69366433D01*
X94100568Y-69155992D01*
X94173553Y-68931368D01*
X94210500Y-68698097D01*
X94210500Y-68461902D01*
X94173553Y-68228631D01*
X94107681Y-68025901D01*
X94100568Y-68004008D01*
X94100566Y-68004005D01*
X94100566Y-68004003D01*
X93993342Y-67793566D01*
X93977419Y-67771650D01*
X93854517Y-67602490D01*
X93687510Y-67435483D01*
X93496433Y-67296657D01*
X93285996Y-67189433D01*
X93061368Y-67116446D01*
X92828097Y-67079500D01*
X92828092Y-67079500D01*
X92591908Y-67079500D01*
X92591903Y-67079500D01*
X92358631Y-67116446D01*
X92134003Y-67189433D01*
X91923566Y-67296657D01*
X91814601Y-67375826D01*
X91732490Y-67435483D01*
X91732488Y-67435485D01*
X91732487Y-67435485D01*
X91565485Y-67602487D01*
X91565485Y-67602488D01*
X91565483Y-67602490D01*
X91521117Y-67663554D01*
X91426657Y-67793566D01*
X91366417Y-67911795D01*
X91318442Y-67962591D01*
X91255932Y-67979500D01*
X87664068Y-67979500D01*
X87597029Y-67959815D01*
X87553583Y-67911795D01*
X87493343Y-67793567D01*
X87354517Y-67602490D01*
X87187510Y-67435483D01*
X86996433Y-67296657D01*
X86785996Y-67189433D01*
X86561368Y-67116446D01*
X86328097Y-67079500D01*
X86328092Y-67079500D01*
X86091908Y-67079500D01*
X86091903Y-67079500D01*
X85858631Y-67116446D01*
X85634003Y-67189433D01*
X85423566Y-67296657D01*
X85314601Y-67375826D01*
X85232490Y-67435483D01*
X85232488Y-67435485D01*
X85232487Y-67435485D01*
X85065485Y-67602487D01*
X85065485Y-67602488D01*
X85065483Y-67602490D01*
X85021117Y-67663554D01*
X84926657Y-67793566D01*
X84819433Y-68004003D01*
X84746446Y-68228631D01*
X84709500Y-68461902D01*
X84709500Y-68698097D01*
X84746447Y-68931369D01*
X84746447Y-68931372D01*
X84787450Y-69057564D01*
X84789445Y-69127405D01*
X84757200Y-69183563D01*
X82187584Y-71753181D01*
X82126261Y-71786666D01*
X82099903Y-71789500D01*
X75620719Y-71789500D01*
X75553680Y-71769815D01*
X75510235Y-71721795D01*
X75490052Y-71682185D01*
X75490051Y-71682184D01*
X75365109Y-71510213D01*
X75214786Y-71359890D01*
X75042820Y-71234951D01*
X75042115Y-71234591D01*
X75034054Y-71230485D01*
X74983259Y-71182512D01*
X74966463Y-71114692D01*
X74988999Y-71048556D01*
X75034054Y-71009515D01*
X75042816Y-71005051D01*
X75064789Y-70989086D01*
X75214786Y-70880109D01*
X75214788Y-70880106D01*
X75214792Y-70880104D01*
X75365104Y-70729792D01*
X75365106Y-70729788D01*
X75365109Y-70729786D01*
X75490048Y-70557820D01*
X75490047Y-70557820D01*
X75490051Y-70557816D01*
X75586557Y-70368412D01*
X75652246Y-70166243D01*
X75685500Y-69956287D01*
X75685500Y-69743713D01*
X75652246Y-69533757D01*
X75586557Y-69331588D01*
X75490051Y-69142184D01*
X75490049Y-69142181D01*
X75490048Y-69142179D01*
X75365109Y-68970213D01*
X75214786Y-68819890D01*
X75042820Y-68694951D01*
X75042115Y-68694591D01*
X75034054Y-68690485D01*
X74983259Y-68642512D01*
X74966463Y-68574692D01*
X74988999Y-68508556D01*
X75034054Y-68469515D01*
X75042816Y-68465051D01*
X75097572Y-68425269D01*
X75214786Y-68340109D01*
X75214788Y-68340106D01*
X75214792Y-68340104D01*
X75365104Y-68189792D01*
X75365106Y-68189788D01*
X75365109Y-68189786D01*
X75490048Y-68017820D01*
X75490047Y-68017820D01*
X75490051Y-68017816D01*
X75586557Y-67828412D01*
X75652246Y-67626243D01*
X75685500Y-67416287D01*
X75685500Y-67203713D01*
X75652246Y-66993757D01*
X75586557Y-66791588D01*
X75490051Y-66602184D01*
X75490049Y-66602181D01*
X75490048Y-66602179D01*
X75365109Y-66430213D01*
X75214786Y-66279890D01*
X75042820Y-66154951D01*
X75034600Y-66150763D01*
X75034054Y-66150485D01*
X74983259Y-66102512D01*
X74966463Y-66034692D01*
X74988999Y-65968556D01*
X75034054Y-65929515D01*
X75042816Y-65925051D01*
X75064789Y-65909086D01*
X75214786Y-65800109D01*
X75214788Y-65800106D01*
X75214792Y-65800104D01*
X75365104Y-65649792D01*
X75365106Y-65649788D01*
X75365109Y-65649786D01*
X75490048Y-65477820D01*
X75490047Y-65477820D01*
X75490051Y-65477816D01*
X75586557Y-65288412D01*
X75652246Y-65086243D01*
X75685500Y-64876287D01*
X75685500Y-64663713D01*
X75652246Y-64453757D01*
X75586557Y-64251588D01*
X75490051Y-64062184D01*
X75490049Y-64062181D01*
X75490048Y-64062179D01*
X75365109Y-63890213D01*
X75214786Y-63739890D01*
X75042820Y-63614951D01*
X75042115Y-63614591D01*
X75034054Y-63610485D01*
X74983259Y-63562512D01*
X74966463Y-63494692D01*
X74988999Y-63428556D01*
X75034054Y-63389515D01*
X75042816Y-63385051D01*
X75168375Y-63293828D01*
X75214786Y-63260109D01*
X75214788Y-63260106D01*
X75214792Y-63260104D01*
X75365104Y-63109792D01*
X75365106Y-63109788D01*
X75365109Y-63109786D01*
X75490048Y-62937820D01*
X75490049Y-62937819D01*
X75490051Y-62937816D01*
X75586557Y-62748412D01*
X75652246Y-62546243D01*
X75685500Y-62336287D01*
X75685500Y-62123713D01*
X75652246Y-61913757D01*
X75586557Y-61711588D01*
X75540296Y-61620795D01*
X75527400Y-61552125D01*
X75553677Y-61487385D01*
X75610783Y-61447128D01*
X75650781Y-61440500D01*
X77424219Y-61440500D01*
X77491258Y-61460185D01*
X77537013Y-61512989D01*
X77546957Y-61582147D01*
X77534704Y-61620795D01*
X77488444Y-61711585D01*
X77422753Y-61913760D01*
X77395500Y-62085830D01*
X77389500Y-62123713D01*
X77389500Y-62336287D01*
X77422754Y-62546243D01*
X77469430Y-62689897D01*
X77488444Y-62748414D01*
X77584951Y-62937820D01*
X77709890Y-63109786D01*
X77860213Y-63260109D01*
X78032182Y-63385050D01*
X78040946Y-63389516D01*
X78091742Y-63437491D01*
X78108536Y-63505312D01*
X78085998Y-63571447D01*
X78040946Y-63610484D01*
X78032182Y-63614949D01*
X77860213Y-63739890D01*
X77709890Y-63890213D01*
X77584951Y-64062179D01*
X77488444Y-64251585D01*
X77422753Y-64453760D01*
X77389500Y-64663713D01*
X77389500Y-64876286D01*
X77422753Y-65086239D01*
X77422753Y-65086241D01*
X77422754Y-65086243D01*
X77465265Y-65217079D01*
X77488444Y-65288414D01*
X77584951Y-65477820D01*
X77709890Y-65649786D01*
X77860213Y-65800109D01*
X78032179Y-65925048D01*
X78032181Y-65925049D01*
X78032184Y-65925051D01*
X78041493Y-65929794D01*
X78092290Y-65977766D01*
X78109087Y-66045587D01*
X78086552Y-66111722D01*
X78041505Y-66150760D01*
X78032446Y-66155376D01*
X78032440Y-66155380D01*
X77978282Y-66194727D01*
X77978282Y-66194728D01*
X78610591Y-66827037D01*
X78547007Y-66844075D01*
X78432993Y-66909901D01*
X78339901Y-67002993D01*
X78274075Y-67117007D01*
X78257037Y-67180591D01*
X77624728Y-66548282D01*
X77624727Y-66548282D01*
X77585380Y-66602439D01*
X77488904Y-66791782D01*
X77423242Y-66993869D01*
X77423242Y-66993872D01*
X77390000Y-67203753D01*
X77390000Y-67416246D01*
X77423242Y-67626127D01*
X77423242Y-67626130D01*
X77488904Y-67828217D01*
X77585375Y-68017550D01*
X77624728Y-68071716D01*
X78257037Y-67439408D01*
X78274075Y-67502993D01*
X78339901Y-67617007D01*
X78432993Y-67710099D01*
X78547007Y-67775925D01*
X78610590Y-67792962D01*
X77978282Y-68425269D01*
X77978282Y-68425270D01*
X78032452Y-68464626D01*
X78032451Y-68464626D01*
X78041495Y-68469234D01*
X78092292Y-68517208D01*
X78109087Y-68585029D01*
X78086550Y-68651164D01*
X78041499Y-68690202D01*
X78032182Y-68694949D01*
X77860213Y-68819890D01*
X77709890Y-68970213D01*
X77584951Y-69142179D01*
X77488444Y-69331585D01*
X77422753Y-69533760D01*
X77389500Y-69743713D01*
X77389500Y-69956286D01*
X77422753Y-70166239D01*
X77488444Y-70368414D01*
X77584951Y-70557820D01*
X77709890Y-70729786D01*
X77860213Y-70880109D01*
X78032179Y-71005048D01*
X78032181Y-71005049D01*
X78032184Y-71005051D01*
X78221588Y-71101557D01*
X78423757Y-71167246D01*
X78633713Y-71200500D01*
X78633714Y-71200500D01*
X78846286Y-71200500D01*
X78846287Y-71200500D01*
X79056243Y-71167246D01*
X79258412Y-71101557D01*
X79447816Y-71005051D01*
X79469789Y-70989086D01*
X79619786Y-70880109D01*
X79619788Y-70880106D01*
X79619792Y-70880104D01*
X79770104Y-70729792D01*
X79770106Y-70729788D01*
X79770109Y-70729786D01*
X79895048Y-70557820D01*
X79895047Y-70557820D01*
X79895051Y-70557816D01*
X79991557Y-70368412D01*
X80057246Y-70166243D01*
X80090500Y-69956287D01*
X80090500Y-69743713D01*
X80057246Y-69533757D01*
X79991557Y-69331588D01*
X79895051Y-69142184D01*
X79895049Y-69142181D01*
X79895048Y-69142179D01*
X79770109Y-68970213D01*
X79619786Y-68819890D01*
X79447817Y-68694949D01*
X79438504Y-68690204D01*
X79387707Y-68642230D01*
X79370912Y-68574409D01*
X79393449Y-68508274D01*
X79438507Y-68469232D01*
X79447555Y-68464622D01*
X79501716Y-68425270D01*
X79501717Y-68425270D01*
X78869408Y-67792962D01*
X78932993Y-67775925D01*
X79047007Y-67710099D01*
X79140099Y-67617007D01*
X79205925Y-67502993D01*
X79222962Y-67439408D01*
X79855270Y-68071717D01*
X79855270Y-68071716D01*
X79894622Y-68017554D01*
X79991095Y-67828217D01*
X80056757Y-67626130D01*
X80056757Y-67626127D01*
X80090000Y-67416246D01*
X80090000Y-67203753D01*
X80056757Y-66993872D01*
X80056757Y-66993869D01*
X79991095Y-66791782D01*
X79894624Y-66602449D01*
X79855270Y-66548282D01*
X79855269Y-66548282D01*
X79222962Y-67180590D01*
X79205925Y-67117007D01*
X79140099Y-67002993D01*
X79047007Y-66909901D01*
X78932993Y-66844075D01*
X78869409Y-66827037D01*
X79501716Y-66194728D01*
X79447547Y-66155373D01*
X79447547Y-66155372D01*
X79438500Y-66150763D01*
X79387706Y-66102788D01*
X79370912Y-66034966D01*
X79393451Y-65968832D01*
X79438508Y-65929793D01*
X79447816Y-65925051D01*
X79527007Y-65867515D01*
X79619786Y-65800109D01*
X79619788Y-65800106D01*
X79619792Y-65800104D01*
X79770104Y-65649792D01*
X79770106Y-65649788D01*
X79770109Y-65649786D01*
X79895048Y-65477820D01*
X79895047Y-65477820D01*
X79895051Y-65477816D01*
X79991557Y-65288412D01*
X80057246Y-65086243D01*
X80090500Y-64876287D01*
X80090500Y-64663713D01*
X80057246Y-64453757D01*
X79991557Y-64251588D01*
X79895051Y-64062184D01*
X79871638Y-64029959D01*
X79871638Y-64029957D01*
X79822226Y-63961947D01*
X84710000Y-63961947D01*
X84710000Y-64198052D01*
X84746934Y-64431247D01*
X84819897Y-64655802D01*
X84927087Y-64866174D01*
X84987338Y-64949104D01*
X84987340Y-64949105D01*
X85686212Y-64250233D01*
X85697482Y-64292292D01*
X85769890Y-64417708D01*
X85872292Y-64520110D01*
X85997708Y-64592518D01*
X86039765Y-64603787D01*
X85340893Y-65302658D01*
X85423828Y-65362914D01*
X85634197Y-65470102D01*
X85858752Y-65543065D01*
X85858751Y-65543065D01*
X86091948Y-65580000D01*
X86328052Y-65580000D01*
X86561247Y-65543065D01*
X86785802Y-65470102D01*
X86996163Y-65362918D01*
X86996169Y-65362914D01*
X87079104Y-65302658D01*
X87079105Y-65302658D01*
X86380233Y-64603787D01*
X86422292Y-64592518D01*
X86547708Y-64520110D01*
X86650110Y-64417708D01*
X86722518Y-64292292D01*
X86733787Y-64250234D01*
X87432658Y-64949105D01*
X87432658Y-64949104D01*
X87492914Y-64866169D01*
X87492918Y-64866163D01*
X87600102Y-64655802D01*
X87673065Y-64431247D01*
X87710000Y-64198052D01*
X87710000Y-63961947D01*
X91210000Y-63961947D01*
X91210000Y-64198052D01*
X91246934Y-64431247D01*
X91319897Y-64655802D01*
X91427087Y-64866174D01*
X91487338Y-64949104D01*
X91487340Y-64949105D01*
X92186212Y-64250233D01*
X92197482Y-64292292D01*
X92269890Y-64417708D01*
X92372292Y-64520110D01*
X92497708Y-64592518D01*
X92539765Y-64603787D01*
X91840893Y-65302658D01*
X91923828Y-65362914D01*
X92134197Y-65470102D01*
X92358752Y-65543065D01*
X92358751Y-65543065D01*
X92591948Y-65580000D01*
X92828052Y-65580000D01*
X93061247Y-65543065D01*
X93285802Y-65470102D01*
X93496163Y-65362918D01*
X93496169Y-65362914D01*
X93579104Y-65302658D01*
X93579105Y-65302658D01*
X92880233Y-64603787D01*
X92922292Y-64592518D01*
X93047708Y-64520110D01*
X93150110Y-64417708D01*
X93222518Y-64292292D01*
X93233787Y-64250234D01*
X93932658Y-64949105D01*
X93932658Y-64949104D01*
X93992914Y-64866169D01*
X93992918Y-64866163D01*
X94100102Y-64655802D01*
X94173065Y-64431247D01*
X94210000Y-64198052D01*
X94210000Y-63961947D01*
X94173065Y-63728752D01*
X94100102Y-63504197D01*
X93992914Y-63293828D01*
X93932658Y-63210894D01*
X93932658Y-63210893D01*
X93233787Y-63909765D01*
X93222518Y-63867708D01*
X93150110Y-63742292D01*
X93047708Y-63639890D01*
X92922292Y-63567482D01*
X92880234Y-63556212D01*
X93579105Y-62857340D01*
X93579104Y-62857338D01*
X93496174Y-62797087D01*
X93285802Y-62689897D01*
X93061247Y-62616934D01*
X93061248Y-62616934D01*
X92828052Y-62580000D01*
X92591948Y-62580000D01*
X92358752Y-62616934D01*
X92134197Y-62689897D01*
X91923830Y-62797084D01*
X91840894Y-62857340D01*
X92539766Y-63556212D01*
X92497708Y-63567482D01*
X92372292Y-63639890D01*
X92269890Y-63742292D01*
X92197482Y-63867708D01*
X92186212Y-63909765D01*
X91487340Y-63210894D01*
X91427084Y-63293830D01*
X91319897Y-63504197D01*
X91246934Y-63728752D01*
X91210000Y-63961947D01*
X87710000Y-63961947D01*
X87673065Y-63728752D01*
X87600102Y-63504197D01*
X87492914Y-63293828D01*
X87432658Y-63210894D01*
X87432658Y-63210893D01*
X86733787Y-63909765D01*
X86722518Y-63867708D01*
X86650110Y-63742292D01*
X86547708Y-63639890D01*
X86422292Y-63567482D01*
X86380234Y-63556212D01*
X87079105Y-62857340D01*
X87079104Y-62857339D01*
X86996174Y-62797087D01*
X86785802Y-62689897D01*
X86561247Y-62616934D01*
X86561248Y-62616934D01*
X86328052Y-62580000D01*
X86091948Y-62580000D01*
X85858752Y-62616934D01*
X85634197Y-62689897D01*
X85423830Y-62797084D01*
X85340894Y-62857340D01*
X86039766Y-63556212D01*
X85997708Y-63567482D01*
X85872292Y-63639890D01*
X85769890Y-63742292D01*
X85697482Y-63867708D01*
X85686212Y-63909765D01*
X84987340Y-63210894D01*
X84927084Y-63293830D01*
X84819897Y-63504197D01*
X84746934Y-63728752D01*
X84710000Y-63961947D01*
X79822226Y-63961947D01*
X79770109Y-63890214D01*
X79770105Y-63890209D01*
X79619786Y-63739890D01*
X79447820Y-63614951D01*
X79447115Y-63614591D01*
X79439054Y-63610485D01*
X79388259Y-63562512D01*
X79371463Y-63494692D01*
X79393999Y-63428556D01*
X79439054Y-63389515D01*
X79447816Y-63385051D01*
X79573375Y-63293828D01*
X79619786Y-63260109D01*
X79619788Y-63260106D01*
X79619792Y-63260104D01*
X79770104Y-63109792D01*
X79770106Y-63109788D01*
X79770109Y-63109786D01*
X79895048Y-62937820D01*
X79895049Y-62937819D01*
X79895051Y-62937816D01*
X79991557Y-62748412D01*
X80057246Y-62546243D01*
X80090500Y-62336287D01*
X80090500Y-62123713D01*
X80057246Y-61913757D01*
X79991557Y-61711588D01*
X79945296Y-61620795D01*
X79932400Y-61552125D01*
X79958677Y-61487385D01*
X80015783Y-61447128D01*
X80055781Y-61440500D01*
X80859903Y-61440500D01*
X80926942Y-61460185D01*
X80947584Y-61476819D01*
X81216241Y-61745476D01*
X81249726Y-61806799D01*
X81246492Y-61871473D01*
X81232753Y-61913757D01*
X81205500Y-62085830D01*
X81199500Y-62123713D01*
X81199500Y-62336287D01*
X81232754Y-62546243D01*
X81279430Y-62689897D01*
X81298444Y-62748414D01*
X81394951Y-62937820D01*
X81519890Y-63109786D01*
X81670213Y-63260109D01*
X81842179Y-63385048D01*
X81842181Y-63385049D01*
X81842184Y-63385051D01*
X82031588Y-63481557D01*
X82233757Y-63547246D01*
X82443713Y-63580500D01*
X82443714Y-63580500D01*
X82656286Y-63580500D01*
X82656287Y-63580500D01*
X82866243Y-63547246D01*
X83068412Y-63481557D01*
X83257816Y-63385051D01*
X83383375Y-63293828D01*
X83429786Y-63260109D01*
X83429788Y-63260106D01*
X83429792Y-63260104D01*
X83580104Y-63109792D01*
X83580106Y-63109788D01*
X83580109Y-63109786D01*
X83665934Y-62991656D01*
X83705051Y-62937816D01*
X83801557Y-62748412D01*
X83867246Y-62546243D01*
X83900500Y-62336287D01*
X83900500Y-62123713D01*
X83867246Y-61913757D01*
X83801557Y-61711588D01*
X83705051Y-61522184D01*
X83705049Y-61522181D01*
X83705048Y-61522179D01*
X83580109Y-61350213D01*
X83429786Y-61199890D01*
X83257820Y-61074951D01*
X83257115Y-61074591D01*
X83249054Y-61070485D01*
X83198259Y-61022512D01*
X83181463Y-60954692D01*
X83203999Y-60888556D01*
X83249054Y-60849515D01*
X83257816Y-60845051D01*
X83279789Y-60829086D01*
X83429786Y-60720109D01*
X83429788Y-60720106D01*
X83429792Y-60720104D01*
X83580104Y-60569792D01*
X83580106Y-60569788D01*
X83580109Y-60569786D01*
X83705048Y-60397820D01*
X83705047Y-60397820D01*
X83705051Y-60397816D01*
X83801557Y-60208412D01*
X83867246Y-60006243D01*
X83900500Y-59796287D01*
X83900500Y-59583713D01*
X83867246Y-59373757D01*
X83801557Y-59171588D01*
X83705051Y-58982184D01*
X83705049Y-58982181D01*
X83705048Y-58982179D01*
X83580109Y-58810213D01*
X83429786Y-58659890D01*
X83257817Y-58534949D01*
X83248504Y-58530204D01*
X83197707Y-58482230D01*
X83180912Y-58414409D01*
X83203449Y-58348274D01*
X83248507Y-58309232D01*
X83257555Y-58304622D01*
X83311716Y-58265270D01*
X83311717Y-58265270D01*
X82679409Y-57632962D01*
X82742993Y-57615925D01*
X82857007Y-57550099D01*
X82950099Y-57457007D01*
X83015925Y-57342993D01*
X83032962Y-57279408D01*
X83665270Y-57911717D01*
X83665270Y-57911716D01*
X83704622Y-57857554D01*
X83801095Y-57668217D01*
X83866757Y-57466130D01*
X83866757Y-57466127D01*
X83900000Y-57256246D01*
X83900000Y-57043753D01*
X83866757Y-56833872D01*
X83866757Y-56833869D01*
X83801095Y-56631782D01*
X83704624Y-56442449D01*
X83665270Y-56388282D01*
X83665269Y-56388282D01*
X83032962Y-57020590D01*
X83015925Y-56957007D01*
X82950099Y-56842993D01*
X82857007Y-56749901D01*
X82742993Y-56684075D01*
X82679407Y-56667036D01*
X83349627Y-55996818D01*
X83410950Y-55963333D01*
X83437308Y-55960499D01*
X83447871Y-55960499D01*
X83447872Y-55960499D01*
X83507483Y-55954091D01*
X83642331Y-55903796D01*
X83757546Y-55817546D01*
X83843796Y-55702331D01*
X83894091Y-55567483D01*
X83900500Y-55507873D01*
X83900499Y-53712128D01*
X83894091Y-53652517D01*
X83843796Y-53517669D01*
X83843795Y-53517668D01*
X83843793Y-53517664D01*
X83757547Y-53402455D01*
X83757544Y-53402452D01*
X83642335Y-53316206D01*
X83642328Y-53316202D01*
X83507482Y-53265908D01*
X83507483Y-53265908D01*
X83447883Y-53259501D01*
X83447881Y-53259500D01*
X83447873Y-53259500D01*
X83447864Y-53259500D01*
X81652129Y-53259500D01*
X81652123Y-53259501D01*
X81592516Y-53265908D01*
X81457671Y-53316202D01*
X81457664Y-53316206D01*
X81342455Y-53402452D01*
X81342452Y-53402455D01*
X81256206Y-53517664D01*
X81256202Y-53517671D01*
X81205908Y-53652517D01*
X81199501Y-53712116D01*
X81199501Y-53712123D01*
X81199500Y-53712135D01*
X81199500Y-55059901D01*
X81190856Y-55089337D01*
X81184333Y-55119327D01*
X81180577Y-55124344D01*
X81179815Y-55126940D01*
X81163182Y-55147582D01*
X81067584Y-55243181D01*
X81006261Y-55276666D01*
X80979902Y-55279500D01*
X80214500Y-55279500D01*
X80147461Y-55259815D01*
X80101706Y-55207011D01*
X80090500Y-55155500D01*
X80090499Y-53712129D01*
X80090498Y-53712123D01*
X80090497Y-53712116D01*
X80084091Y-53652517D01*
X80033796Y-53517669D01*
X80033795Y-53517668D01*
X80033793Y-53517664D01*
X79947547Y-53402455D01*
X79947544Y-53402452D01*
X79832335Y-53316206D01*
X79832328Y-53316202D01*
X79697482Y-53265908D01*
X79697483Y-53265908D01*
X79637883Y-53259501D01*
X79637881Y-53259500D01*
X79637873Y-53259500D01*
X79637865Y-53259500D01*
X78290097Y-53259500D01*
X78223058Y-53239815D01*
X78202416Y-53223181D01*
X77957590Y-52978355D01*
X77957588Y-52978352D01*
X77838717Y-52859481D01*
X77838716Y-52859480D01*
X77751904Y-52809360D01*
X77751904Y-52809359D01*
X77751900Y-52809358D01*
X77701785Y-52780423D01*
X77549057Y-52739499D01*
X77390943Y-52739499D01*
X77383347Y-52739499D01*
X77383331Y-52739500D01*
X69770943Y-52739500D01*
X69618216Y-52780423D01*
X69618209Y-52780426D01*
X69481290Y-52859475D01*
X69481282Y-52859481D01*
X69369481Y-52971282D01*
X69369477Y-52971287D01*
X69311887Y-53071038D01*
X69261320Y-53119253D01*
X69192713Y-53132477D01*
X69127849Y-53106509D01*
X69087320Y-53049595D01*
X69080500Y-53009038D01*
X69080500Y-51424500D01*
X69100185Y-51357461D01*
X69152989Y-51311706D01*
X69204500Y-51300500D01*
X94625500Y-51300500D01*
X94692539Y-51320185D01*
G37*
%TD.AperFunction*%
%TD*%
M02*
