%TF.GenerationSoftware,KiCad,Pcbnew,10.0.3*%
%TF.CreationDate,2026-09-30T17:16:40-04:00*%
%TF.ProjectId,coda,636f6461-2e6b-4696-9361-645f70636258,rev?*%
%TF.SameCoordinates,Original*%
%TF.FileFunction,Soldermask,Bot*%
%TF.FilePolarity,Negative*%
%FSLAX46Y46*%
G04 Gerber Fmt 4.6, Leading zero omitted, Abs format (unit mm)*
G04 Created by KiCad (PCBNEW 10.0.3) date 2026-09-30 17:16:40*
%MOMM*%
%LPD*%
G01*
G04 APERTURE LIST*
%ADD10R,1.700000X1.700000*%
%ADD11C,1.700000*%
%ADD12R,2.000000X2.000000*%
%ADD13C,2.000000*%
%ADD14R,3.200000X2.000000*%
G04 APERTURE END LIST*
D10*
%TO.C,J3*%
X82550000Y-54610000D03*
D11*
X82550000Y-57150000D03*
X82550000Y-59690000D03*
X82550000Y-62230000D03*
%TD*%
%TO.C,J2*%
X78740000Y-69850000D03*
X78740000Y-67310000D03*
X78740000Y-64770000D03*
X78740000Y-62230000D03*
X78740000Y-59690000D03*
X78740000Y-57150000D03*
D10*
X78740000Y-54610000D03*
%TD*%
D12*
%TO.C,SW4*%
X78210000Y-95000000D03*
D13*
X78210000Y-100000000D03*
X78210000Y-97500000D03*
D14*
X85710000Y-91900000D03*
X85710000Y-103100000D03*
D13*
X92710000Y-100000000D03*
X92710000Y-95000000D03*
%TD*%
%TO.C,SW3*%
X92710000Y-85780000D03*
X86210000Y-85780000D03*
X92710000Y-81280000D03*
X86210000Y-81280000D03*
%TD*%
%TO.C,SW2*%
X92710000Y-77180000D03*
X86210000Y-77180000D03*
X92710000Y-72680000D03*
X86210000Y-72680000D03*
%TD*%
%TO.C,SW1*%
X86210000Y-64080000D03*
X92710000Y-64080000D03*
X86210000Y-68580000D03*
X92710000Y-68580000D03*
%TD*%
D10*
%TO.C,J1*%
X74335000Y-54610000D03*
D11*
X71795000Y-54610000D03*
X74335000Y-57150000D03*
X71795000Y-57150000D03*
X74335000Y-59690000D03*
X71795000Y-59690000D03*
X74335000Y-62230000D03*
X71795000Y-62230000D03*
X74335000Y-64770000D03*
X71795000Y-64770000D03*
X74335000Y-67310000D03*
X71795000Y-67310000D03*
X74335000Y-69850000D03*
X71795000Y-69850000D03*
X74335000Y-72390000D03*
X71795000Y-72390000D03*
X74335000Y-74930000D03*
X71795000Y-74930000D03*
X74335000Y-77470000D03*
X71795000Y-77470000D03*
X74335000Y-80010000D03*
X71795000Y-80010000D03*
X74335000Y-82550000D03*
X71795000Y-82550000D03*
X74335000Y-85090000D03*
X71795000Y-85090000D03*
X74335000Y-87630000D03*
X71795000Y-87630000D03*
X74335000Y-90170000D03*
X71795000Y-90170000D03*
X74335000Y-92710000D03*
X71795000Y-92710000D03*
X74335000Y-95250000D03*
X71795000Y-95250000D03*
X74335000Y-97790000D03*
X71795000Y-97790000D03*
X74335000Y-100330000D03*
X71795000Y-100330000D03*
X74335000Y-102870000D03*
X71795000Y-102870000D03*
%TD*%
M02*
