%TF.GenerationSoftware,KiCad,Pcbnew,10.0.3*%
%TF.CreationDate,2026-09-30T17:16:40-04:00*%
%TF.ProjectId,coda,636f6461-2e6b-4696-9361-645f70636258,rev?*%
%TF.SameCoordinates,Original*%
%TF.FileFunction,Legend,Top*%
%TF.FilePolarity,Positive*%
%FSLAX46Y46*%
G04 Gerber Fmt 4.6, Leading zero omitted, Abs format (unit mm)*
G04 Created by KiCad (PCBNEW 10.0.3) date 2026-09-30 17:16:40*
%MOMM*%
%LPD*%
G01*
G04 APERTURE LIST*
%ADD10C,0.100000*%
%ADD11C,0.150000*%
%ADD12C,0.120000*%
G04 APERTURE END LIST*
D10*
X86663884Y-54732587D02*
X86663884Y-54065920D01*
X86663884Y-54161158D02*
X86711503Y-54113539D01*
X86711503Y-54113539D02*
X86806741Y-54065920D01*
X86806741Y-54065920D02*
X86949598Y-54065920D01*
X86949598Y-54065920D02*
X87044836Y-54113539D01*
X87044836Y-54113539D02*
X87092455Y-54208777D01*
X87092455Y-54208777D02*
X87092455Y-54732587D01*
X87092455Y-54208777D02*
X87140074Y-54113539D01*
X87140074Y-54113539D02*
X87235312Y-54065920D01*
X87235312Y-54065920D02*
X87378169Y-54065920D01*
X87378169Y-54065920D02*
X87473408Y-54113539D01*
X87473408Y-54113539D02*
X87521027Y-54208777D01*
X87521027Y-54208777D02*
X87521027Y-54732587D01*
X88425788Y-54065920D02*
X88425788Y-54732587D01*
X87997217Y-54065920D02*
X87997217Y-54589729D01*
X87997217Y-54589729D02*
X88044836Y-54684968D01*
X88044836Y-54684968D02*
X88140074Y-54732587D01*
X88140074Y-54732587D02*
X88282931Y-54732587D01*
X88282931Y-54732587D02*
X88378169Y-54684968D01*
X88378169Y-54684968D02*
X88425788Y-54637348D01*
X88854360Y-54684968D02*
X88949598Y-54732587D01*
X88949598Y-54732587D02*
X89140074Y-54732587D01*
X89140074Y-54732587D02*
X89235312Y-54684968D01*
X89235312Y-54684968D02*
X89282931Y-54589729D01*
X89282931Y-54589729D02*
X89282931Y-54542110D01*
X89282931Y-54542110D02*
X89235312Y-54446872D01*
X89235312Y-54446872D02*
X89140074Y-54399253D01*
X89140074Y-54399253D02*
X88997217Y-54399253D01*
X88997217Y-54399253D02*
X88901979Y-54351634D01*
X88901979Y-54351634D02*
X88854360Y-54256396D01*
X88854360Y-54256396D02*
X88854360Y-54208777D01*
X88854360Y-54208777D02*
X88901979Y-54113539D01*
X88901979Y-54113539D02*
X88997217Y-54065920D01*
X88997217Y-54065920D02*
X89140074Y-54065920D01*
X89140074Y-54065920D02*
X89235312Y-54113539D01*
X89711503Y-54732587D02*
X89711503Y-54065920D01*
X89711503Y-53732587D02*
X89663884Y-53780206D01*
X89663884Y-53780206D02*
X89711503Y-53827825D01*
X89711503Y-53827825D02*
X89759122Y-53780206D01*
X89759122Y-53780206D02*
X89711503Y-53732587D01*
X89711503Y-53732587D02*
X89711503Y-53827825D01*
X90616264Y-54684968D02*
X90521026Y-54732587D01*
X90521026Y-54732587D02*
X90330550Y-54732587D01*
X90330550Y-54732587D02*
X90235312Y-54684968D01*
X90235312Y-54684968D02*
X90187693Y-54637348D01*
X90187693Y-54637348D02*
X90140074Y-54542110D01*
X90140074Y-54542110D02*
X90140074Y-54256396D01*
X90140074Y-54256396D02*
X90187693Y-54161158D01*
X90187693Y-54161158D02*
X90235312Y-54113539D01*
X90235312Y-54113539D02*
X90330550Y-54065920D01*
X90330550Y-54065920D02*
X90521026Y-54065920D01*
X90521026Y-54065920D02*
X90616264Y-54113539D01*
X86663884Y-56342531D02*
X86663884Y-55675864D01*
X86663884Y-55771102D02*
X86711503Y-55723483D01*
X86711503Y-55723483D02*
X86806741Y-55675864D01*
X86806741Y-55675864D02*
X86949598Y-55675864D01*
X86949598Y-55675864D02*
X87044836Y-55723483D01*
X87044836Y-55723483D02*
X87092455Y-55818721D01*
X87092455Y-55818721D02*
X87092455Y-56342531D01*
X87092455Y-55818721D02*
X87140074Y-55723483D01*
X87140074Y-55723483D02*
X87235312Y-55675864D01*
X87235312Y-55675864D02*
X87378169Y-55675864D01*
X87378169Y-55675864D02*
X87473408Y-55723483D01*
X87473408Y-55723483D02*
X87521027Y-55818721D01*
X87521027Y-55818721D02*
X87521027Y-56342531D01*
X88425788Y-56342531D02*
X88425788Y-55818721D01*
X88425788Y-55818721D02*
X88378169Y-55723483D01*
X88378169Y-55723483D02*
X88282931Y-55675864D01*
X88282931Y-55675864D02*
X88092455Y-55675864D01*
X88092455Y-55675864D02*
X87997217Y-55723483D01*
X88425788Y-56294912D02*
X88330550Y-56342531D01*
X88330550Y-56342531D02*
X88092455Y-56342531D01*
X88092455Y-56342531D02*
X87997217Y-56294912D01*
X87997217Y-56294912D02*
X87949598Y-56199673D01*
X87949598Y-56199673D02*
X87949598Y-56104435D01*
X87949598Y-56104435D02*
X87997217Y-56009197D01*
X87997217Y-56009197D02*
X88092455Y-55961578D01*
X88092455Y-55961578D02*
X88330550Y-55961578D01*
X88330550Y-55961578D02*
X88425788Y-55913959D01*
X88901979Y-56342531D02*
X88901979Y-55342531D01*
X88997217Y-55961578D02*
X89282931Y-56342531D01*
X89282931Y-55675864D02*
X88901979Y-56056816D01*
X90092455Y-56294912D02*
X89997217Y-56342531D01*
X89997217Y-56342531D02*
X89806741Y-56342531D01*
X89806741Y-56342531D02*
X89711503Y-56294912D01*
X89711503Y-56294912D02*
X89663884Y-56199673D01*
X89663884Y-56199673D02*
X89663884Y-55818721D01*
X89663884Y-55818721D02*
X89711503Y-55723483D01*
X89711503Y-55723483D02*
X89806741Y-55675864D01*
X89806741Y-55675864D02*
X89997217Y-55675864D01*
X89997217Y-55675864D02*
X90092455Y-55723483D01*
X90092455Y-55723483D02*
X90140074Y-55818721D01*
X90140074Y-55818721D02*
X90140074Y-55913959D01*
X90140074Y-55913959D02*
X89663884Y-56009197D01*
X90521027Y-56294912D02*
X90616265Y-56342531D01*
X90616265Y-56342531D02*
X90806741Y-56342531D01*
X90806741Y-56342531D02*
X90901979Y-56294912D01*
X90901979Y-56294912D02*
X90949598Y-56199673D01*
X90949598Y-56199673D02*
X90949598Y-56152054D01*
X90949598Y-56152054D02*
X90901979Y-56056816D01*
X90901979Y-56056816D02*
X90806741Y-56009197D01*
X90806741Y-56009197D02*
X90663884Y-56009197D01*
X90663884Y-56009197D02*
X90568646Y-55961578D01*
X90568646Y-55961578D02*
X90521027Y-55866340D01*
X90521027Y-55866340D02*
X90521027Y-55818721D01*
X90521027Y-55818721D02*
X90568646Y-55723483D01*
X90568646Y-55723483D02*
X90663884Y-55675864D01*
X90663884Y-55675864D02*
X90806741Y-55675864D01*
X90806741Y-55675864D02*
X90901979Y-55723483D01*
X86663884Y-57952475D02*
X86663884Y-57285808D01*
X86663884Y-57381046D02*
X86711503Y-57333427D01*
X86711503Y-57333427D02*
X86806741Y-57285808D01*
X86806741Y-57285808D02*
X86949598Y-57285808D01*
X86949598Y-57285808D02*
X87044836Y-57333427D01*
X87044836Y-57333427D02*
X87092455Y-57428665D01*
X87092455Y-57428665D02*
X87092455Y-57952475D01*
X87092455Y-57428665D02*
X87140074Y-57333427D01*
X87140074Y-57333427D02*
X87235312Y-57285808D01*
X87235312Y-57285808D02*
X87378169Y-57285808D01*
X87378169Y-57285808D02*
X87473408Y-57333427D01*
X87473408Y-57333427D02*
X87521027Y-57428665D01*
X87521027Y-57428665D02*
X87521027Y-57952475D01*
X88378169Y-57904856D02*
X88282931Y-57952475D01*
X88282931Y-57952475D02*
X88092455Y-57952475D01*
X88092455Y-57952475D02*
X87997217Y-57904856D01*
X87997217Y-57904856D02*
X87949598Y-57809617D01*
X87949598Y-57809617D02*
X87949598Y-57428665D01*
X87949598Y-57428665D02*
X87997217Y-57333427D01*
X87997217Y-57333427D02*
X88092455Y-57285808D01*
X88092455Y-57285808D02*
X88282931Y-57285808D01*
X88282931Y-57285808D02*
X88378169Y-57333427D01*
X88378169Y-57333427D02*
X88425788Y-57428665D01*
X88425788Y-57428665D02*
X88425788Y-57523903D01*
X88425788Y-57523903D02*
X87949598Y-57619141D01*
X89759122Y-57952475D02*
X89663884Y-57904856D01*
X89663884Y-57904856D02*
X89616265Y-57809617D01*
X89616265Y-57809617D02*
X89616265Y-56952475D01*
X90282932Y-57952475D02*
X90187694Y-57904856D01*
X90187694Y-57904856D02*
X90140075Y-57857236D01*
X90140075Y-57857236D02*
X90092456Y-57761998D01*
X90092456Y-57761998D02*
X90092456Y-57476284D01*
X90092456Y-57476284D02*
X90140075Y-57381046D01*
X90140075Y-57381046D02*
X90187694Y-57333427D01*
X90187694Y-57333427D02*
X90282932Y-57285808D01*
X90282932Y-57285808D02*
X90425789Y-57285808D01*
X90425789Y-57285808D02*
X90521027Y-57333427D01*
X90521027Y-57333427D02*
X90568646Y-57381046D01*
X90568646Y-57381046D02*
X90616265Y-57476284D01*
X90616265Y-57476284D02*
X90616265Y-57761998D01*
X90616265Y-57761998D02*
X90568646Y-57857236D01*
X90568646Y-57857236D02*
X90521027Y-57904856D01*
X90521027Y-57904856D02*
X90425789Y-57952475D01*
X90425789Y-57952475D02*
X90282932Y-57952475D01*
X90997218Y-57904856D02*
X91092456Y-57952475D01*
X91092456Y-57952475D02*
X91282932Y-57952475D01*
X91282932Y-57952475D02*
X91378170Y-57904856D01*
X91378170Y-57904856D02*
X91425789Y-57809617D01*
X91425789Y-57809617D02*
X91425789Y-57761998D01*
X91425789Y-57761998D02*
X91378170Y-57666760D01*
X91378170Y-57666760D02*
X91282932Y-57619141D01*
X91282932Y-57619141D02*
X91140075Y-57619141D01*
X91140075Y-57619141D02*
X91044837Y-57571522D01*
X91044837Y-57571522D02*
X90997218Y-57476284D01*
X90997218Y-57476284D02*
X90997218Y-57428665D01*
X90997218Y-57428665D02*
X91044837Y-57333427D01*
X91044837Y-57333427D02*
X91140075Y-57285808D01*
X91140075Y-57285808D02*
X91282932Y-57285808D01*
X91282932Y-57285808D02*
X91378170Y-57333427D01*
X92235313Y-57904856D02*
X92140075Y-57952475D01*
X92140075Y-57952475D02*
X91949599Y-57952475D01*
X91949599Y-57952475D02*
X91854361Y-57904856D01*
X91854361Y-57904856D02*
X91806742Y-57809617D01*
X91806742Y-57809617D02*
X91806742Y-57428665D01*
X91806742Y-57428665D02*
X91854361Y-57333427D01*
X91854361Y-57333427D02*
X91949599Y-57285808D01*
X91949599Y-57285808D02*
X92140075Y-57285808D01*
X92140075Y-57285808D02*
X92235313Y-57333427D01*
X92235313Y-57333427D02*
X92282932Y-57428665D01*
X92282932Y-57428665D02*
X92282932Y-57523903D01*
X92282932Y-57523903D02*
X91806742Y-57619141D01*
X87092455Y-59514800D02*
X86997217Y-59562419D01*
X86997217Y-59562419D02*
X86806741Y-59562419D01*
X86806741Y-59562419D02*
X86711503Y-59514800D01*
X86711503Y-59514800D02*
X86663884Y-59467180D01*
X86663884Y-59467180D02*
X86616265Y-59371942D01*
X86616265Y-59371942D02*
X86616265Y-59086228D01*
X86616265Y-59086228D02*
X86663884Y-58990990D01*
X86663884Y-58990990D02*
X86711503Y-58943371D01*
X86711503Y-58943371D02*
X86806741Y-58895752D01*
X86806741Y-58895752D02*
X86997217Y-58895752D01*
X86997217Y-58895752D02*
X87092455Y-58943371D01*
X87663884Y-59562419D02*
X87568646Y-59514800D01*
X87568646Y-59514800D02*
X87521027Y-59467180D01*
X87521027Y-59467180D02*
X87473408Y-59371942D01*
X87473408Y-59371942D02*
X87473408Y-59086228D01*
X87473408Y-59086228D02*
X87521027Y-58990990D01*
X87521027Y-58990990D02*
X87568646Y-58943371D01*
X87568646Y-58943371D02*
X87663884Y-58895752D01*
X87663884Y-58895752D02*
X87806741Y-58895752D01*
X87806741Y-58895752D02*
X87901979Y-58943371D01*
X87901979Y-58943371D02*
X87949598Y-58990990D01*
X87949598Y-58990990D02*
X87997217Y-59086228D01*
X87997217Y-59086228D02*
X87997217Y-59371942D01*
X87997217Y-59371942D02*
X87949598Y-59467180D01*
X87949598Y-59467180D02*
X87901979Y-59514800D01*
X87901979Y-59514800D02*
X87806741Y-59562419D01*
X87806741Y-59562419D02*
X87663884Y-59562419D01*
X88425789Y-58895752D02*
X88425789Y-59562419D01*
X88425789Y-58990990D02*
X88473408Y-58943371D01*
X88473408Y-58943371D02*
X88568646Y-58895752D01*
X88568646Y-58895752D02*
X88711503Y-58895752D01*
X88711503Y-58895752D02*
X88806741Y-58943371D01*
X88806741Y-58943371D02*
X88854360Y-59038609D01*
X88854360Y-59038609D02*
X88854360Y-59562419D01*
X89187694Y-58895752D02*
X89568646Y-58895752D01*
X89330551Y-58562419D02*
X89330551Y-59419561D01*
X89330551Y-59419561D02*
X89378170Y-59514800D01*
X89378170Y-59514800D02*
X89473408Y-59562419D01*
X89473408Y-59562419D02*
X89568646Y-59562419D01*
X89901980Y-59562419D02*
X89901980Y-58895752D01*
X89901980Y-59086228D02*
X89949599Y-58990990D01*
X89949599Y-58990990D02*
X89997218Y-58943371D01*
X89997218Y-58943371D02*
X90092456Y-58895752D01*
X90092456Y-58895752D02*
X90187694Y-58895752D01*
X90663885Y-59562419D02*
X90568647Y-59514800D01*
X90568647Y-59514800D02*
X90521028Y-59467180D01*
X90521028Y-59467180D02*
X90473409Y-59371942D01*
X90473409Y-59371942D02*
X90473409Y-59086228D01*
X90473409Y-59086228D02*
X90521028Y-58990990D01*
X90521028Y-58990990D02*
X90568647Y-58943371D01*
X90568647Y-58943371D02*
X90663885Y-58895752D01*
X90663885Y-58895752D02*
X90806742Y-58895752D01*
X90806742Y-58895752D02*
X90901980Y-58943371D01*
X90901980Y-58943371D02*
X90949599Y-58990990D01*
X90949599Y-58990990D02*
X90997218Y-59086228D01*
X90997218Y-59086228D02*
X90997218Y-59371942D01*
X90997218Y-59371942D02*
X90949599Y-59467180D01*
X90949599Y-59467180D02*
X90901980Y-59514800D01*
X90901980Y-59514800D02*
X90806742Y-59562419D01*
X90806742Y-59562419D02*
X90663885Y-59562419D01*
X91568647Y-59562419D02*
X91473409Y-59514800D01*
X91473409Y-59514800D02*
X91425790Y-59419561D01*
X91425790Y-59419561D02*
X91425790Y-58562419D01*
X78202455Y-88724800D02*
X78107217Y-88772419D01*
X78107217Y-88772419D02*
X77916741Y-88772419D01*
X77916741Y-88772419D02*
X77821503Y-88724800D01*
X77821503Y-88724800D02*
X77773884Y-88677180D01*
X77773884Y-88677180D02*
X77726265Y-88581942D01*
X77726265Y-88581942D02*
X77726265Y-88296228D01*
X77726265Y-88296228D02*
X77773884Y-88200990D01*
X77773884Y-88200990D02*
X77821503Y-88153371D01*
X77821503Y-88153371D02*
X77916741Y-88105752D01*
X77916741Y-88105752D02*
X78107217Y-88105752D01*
X78107217Y-88105752D02*
X78202455Y-88153371D01*
X78773884Y-88772419D02*
X78678646Y-88724800D01*
X78678646Y-88724800D02*
X78631027Y-88677180D01*
X78631027Y-88677180D02*
X78583408Y-88581942D01*
X78583408Y-88581942D02*
X78583408Y-88296228D01*
X78583408Y-88296228D02*
X78631027Y-88200990D01*
X78631027Y-88200990D02*
X78678646Y-88153371D01*
X78678646Y-88153371D02*
X78773884Y-88105752D01*
X78773884Y-88105752D02*
X78916741Y-88105752D01*
X78916741Y-88105752D02*
X79011979Y-88153371D01*
X79011979Y-88153371D02*
X79059598Y-88200990D01*
X79059598Y-88200990D02*
X79107217Y-88296228D01*
X79107217Y-88296228D02*
X79107217Y-88581942D01*
X79107217Y-88581942D02*
X79059598Y-88677180D01*
X79059598Y-88677180D02*
X79011979Y-88724800D01*
X79011979Y-88724800D02*
X78916741Y-88772419D01*
X78916741Y-88772419D02*
X78773884Y-88772419D01*
X79964360Y-88772419D02*
X79964360Y-87772419D01*
X79964360Y-88724800D02*
X79869122Y-88772419D01*
X79869122Y-88772419D02*
X79678646Y-88772419D01*
X79678646Y-88772419D02*
X79583408Y-88724800D01*
X79583408Y-88724800D02*
X79535789Y-88677180D01*
X79535789Y-88677180D02*
X79488170Y-88581942D01*
X79488170Y-88581942D02*
X79488170Y-88296228D01*
X79488170Y-88296228D02*
X79535789Y-88200990D01*
X79535789Y-88200990D02*
X79583408Y-88153371D01*
X79583408Y-88153371D02*
X79678646Y-88105752D01*
X79678646Y-88105752D02*
X79869122Y-88105752D01*
X79869122Y-88105752D02*
X79964360Y-88153371D01*
X80869122Y-88772419D02*
X80869122Y-88248609D01*
X80869122Y-88248609D02*
X80821503Y-88153371D01*
X80821503Y-88153371D02*
X80726265Y-88105752D01*
X80726265Y-88105752D02*
X80535789Y-88105752D01*
X80535789Y-88105752D02*
X80440551Y-88153371D01*
X80869122Y-88724800D02*
X80773884Y-88772419D01*
X80773884Y-88772419D02*
X80535789Y-88772419D01*
X80535789Y-88772419D02*
X80440551Y-88724800D01*
X80440551Y-88724800D02*
X80392932Y-88629561D01*
X80392932Y-88629561D02*
X80392932Y-88534323D01*
X80392932Y-88534323D02*
X80440551Y-88439085D01*
X80440551Y-88439085D02*
X80535789Y-88391466D01*
X80535789Y-88391466D02*
X80773884Y-88391466D01*
X80773884Y-88391466D02*
X80869122Y-88343847D01*
X82011980Y-88105752D02*
X82250075Y-88772419D01*
X82250075Y-88772419D02*
X82488170Y-88105752D01*
X83059599Y-87772419D02*
X83154837Y-87772419D01*
X83154837Y-87772419D02*
X83250075Y-87820038D01*
X83250075Y-87820038D02*
X83297694Y-87867657D01*
X83297694Y-87867657D02*
X83345313Y-87962895D01*
X83345313Y-87962895D02*
X83392932Y-88153371D01*
X83392932Y-88153371D02*
X83392932Y-88391466D01*
X83392932Y-88391466D02*
X83345313Y-88581942D01*
X83345313Y-88581942D02*
X83297694Y-88677180D01*
X83297694Y-88677180D02*
X83250075Y-88724800D01*
X83250075Y-88724800D02*
X83154837Y-88772419D01*
X83154837Y-88772419D02*
X83059599Y-88772419D01*
X83059599Y-88772419D02*
X82964361Y-88724800D01*
X82964361Y-88724800D02*
X82916742Y-88677180D01*
X82916742Y-88677180D02*
X82869123Y-88581942D01*
X82869123Y-88581942D02*
X82821504Y-88391466D01*
X82821504Y-88391466D02*
X82821504Y-88153371D01*
X82821504Y-88153371D02*
X82869123Y-87962895D01*
X82869123Y-87962895D02*
X82916742Y-87867657D01*
X82916742Y-87867657D02*
X82964361Y-87820038D01*
X82964361Y-87820038D02*
X83059599Y-87772419D01*
X83821504Y-88677180D02*
X83869123Y-88724800D01*
X83869123Y-88724800D02*
X83821504Y-88772419D01*
X83821504Y-88772419D02*
X83773885Y-88724800D01*
X83773885Y-88724800D02*
X83821504Y-88677180D01*
X83821504Y-88677180D02*
X83821504Y-88772419D01*
X84821503Y-88772419D02*
X84250075Y-88772419D01*
X84535789Y-88772419D02*
X84535789Y-87772419D01*
X84535789Y-87772419D02*
X84440551Y-87915276D01*
X84440551Y-87915276D02*
X84345313Y-88010514D01*
X84345313Y-88010514D02*
X84250075Y-88058133D01*
D11*
X82216666Y-51294819D02*
X82216666Y-52009104D01*
X82216666Y-52009104D02*
X82169047Y-52151961D01*
X82169047Y-52151961D02*
X82073809Y-52247200D01*
X82073809Y-52247200D02*
X81930952Y-52294819D01*
X81930952Y-52294819D02*
X81835714Y-52294819D01*
X82597619Y-51294819D02*
X83216666Y-51294819D01*
X83216666Y-51294819D02*
X82883333Y-51675771D01*
X82883333Y-51675771D02*
X83026190Y-51675771D01*
X83026190Y-51675771D02*
X83121428Y-51723390D01*
X83121428Y-51723390D02*
X83169047Y-51771009D01*
X83169047Y-51771009D02*
X83216666Y-51866247D01*
X83216666Y-51866247D02*
X83216666Y-52104342D01*
X83216666Y-52104342D02*
X83169047Y-52199580D01*
X83169047Y-52199580D02*
X83121428Y-52247200D01*
X83121428Y-52247200D02*
X83026190Y-52294819D01*
X83026190Y-52294819D02*
X82740476Y-52294819D01*
X82740476Y-52294819D02*
X82645238Y-52247200D01*
X82645238Y-52247200D02*
X82597619Y-52199580D01*
X78406666Y-51294819D02*
X78406666Y-52009104D01*
X78406666Y-52009104D02*
X78359047Y-52151961D01*
X78359047Y-52151961D02*
X78263809Y-52247200D01*
X78263809Y-52247200D02*
X78120952Y-52294819D01*
X78120952Y-52294819D02*
X78025714Y-52294819D01*
X78835238Y-51390057D02*
X78882857Y-51342438D01*
X78882857Y-51342438D02*
X78978095Y-51294819D01*
X78978095Y-51294819D02*
X79216190Y-51294819D01*
X79216190Y-51294819D02*
X79311428Y-51342438D01*
X79311428Y-51342438D02*
X79359047Y-51390057D01*
X79359047Y-51390057D02*
X79406666Y-51485295D01*
X79406666Y-51485295D02*
X79406666Y-51580533D01*
X79406666Y-51580533D02*
X79359047Y-51723390D01*
X79359047Y-51723390D02*
X78787619Y-52294819D01*
X78787619Y-52294819D02*
X79406666Y-52294819D01*
X79676667Y-90707200D02*
X79819524Y-90754819D01*
X79819524Y-90754819D02*
X80057619Y-90754819D01*
X80057619Y-90754819D02*
X80152857Y-90707200D01*
X80152857Y-90707200D02*
X80200476Y-90659580D01*
X80200476Y-90659580D02*
X80248095Y-90564342D01*
X80248095Y-90564342D02*
X80248095Y-90469104D01*
X80248095Y-90469104D02*
X80200476Y-90373866D01*
X80200476Y-90373866D02*
X80152857Y-90326247D01*
X80152857Y-90326247D02*
X80057619Y-90278628D01*
X80057619Y-90278628D02*
X79867143Y-90231009D01*
X79867143Y-90231009D02*
X79771905Y-90183390D01*
X79771905Y-90183390D02*
X79724286Y-90135771D01*
X79724286Y-90135771D02*
X79676667Y-90040533D01*
X79676667Y-90040533D02*
X79676667Y-89945295D01*
X79676667Y-89945295D02*
X79724286Y-89850057D01*
X79724286Y-89850057D02*
X79771905Y-89802438D01*
X79771905Y-89802438D02*
X79867143Y-89754819D01*
X79867143Y-89754819D02*
X80105238Y-89754819D01*
X80105238Y-89754819D02*
X80248095Y-89802438D01*
X80581429Y-89754819D02*
X80819524Y-90754819D01*
X80819524Y-90754819D02*
X81010000Y-90040533D01*
X81010000Y-90040533D02*
X81200476Y-90754819D01*
X81200476Y-90754819D02*
X81438572Y-89754819D01*
X82248095Y-90088152D02*
X82248095Y-90754819D01*
X82010000Y-89707200D02*
X81771905Y-90421485D01*
X81771905Y-90421485D02*
X82390952Y-90421485D01*
X88126667Y-79687200D02*
X88269524Y-79734819D01*
X88269524Y-79734819D02*
X88507619Y-79734819D01*
X88507619Y-79734819D02*
X88602857Y-79687200D01*
X88602857Y-79687200D02*
X88650476Y-79639580D01*
X88650476Y-79639580D02*
X88698095Y-79544342D01*
X88698095Y-79544342D02*
X88698095Y-79449104D01*
X88698095Y-79449104D02*
X88650476Y-79353866D01*
X88650476Y-79353866D02*
X88602857Y-79306247D01*
X88602857Y-79306247D02*
X88507619Y-79258628D01*
X88507619Y-79258628D02*
X88317143Y-79211009D01*
X88317143Y-79211009D02*
X88221905Y-79163390D01*
X88221905Y-79163390D02*
X88174286Y-79115771D01*
X88174286Y-79115771D02*
X88126667Y-79020533D01*
X88126667Y-79020533D02*
X88126667Y-78925295D01*
X88126667Y-78925295D02*
X88174286Y-78830057D01*
X88174286Y-78830057D02*
X88221905Y-78782438D01*
X88221905Y-78782438D02*
X88317143Y-78734819D01*
X88317143Y-78734819D02*
X88555238Y-78734819D01*
X88555238Y-78734819D02*
X88698095Y-78782438D01*
X89031429Y-78734819D02*
X89269524Y-79734819D01*
X89269524Y-79734819D02*
X89460000Y-79020533D01*
X89460000Y-79020533D02*
X89650476Y-79734819D01*
X89650476Y-79734819D02*
X89888572Y-78734819D01*
X90174286Y-78734819D02*
X90793333Y-78734819D01*
X90793333Y-78734819D02*
X90460000Y-79115771D01*
X90460000Y-79115771D02*
X90602857Y-79115771D01*
X90602857Y-79115771D02*
X90698095Y-79163390D01*
X90698095Y-79163390D02*
X90745714Y-79211009D01*
X90745714Y-79211009D02*
X90793333Y-79306247D01*
X90793333Y-79306247D02*
X90793333Y-79544342D01*
X90793333Y-79544342D02*
X90745714Y-79639580D01*
X90745714Y-79639580D02*
X90698095Y-79687200D01*
X90698095Y-79687200D02*
X90602857Y-79734819D01*
X90602857Y-79734819D02*
X90317143Y-79734819D01*
X90317143Y-79734819D02*
X90221905Y-79687200D01*
X90221905Y-79687200D02*
X90174286Y-79639580D01*
X88126667Y-71087200D02*
X88269524Y-71134819D01*
X88269524Y-71134819D02*
X88507619Y-71134819D01*
X88507619Y-71134819D02*
X88602857Y-71087200D01*
X88602857Y-71087200D02*
X88650476Y-71039580D01*
X88650476Y-71039580D02*
X88698095Y-70944342D01*
X88698095Y-70944342D02*
X88698095Y-70849104D01*
X88698095Y-70849104D02*
X88650476Y-70753866D01*
X88650476Y-70753866D02*
X88602857Y-70706247D01*
X88602857Y-70706247D02*
X88507619Y-70658628D01*
X88507619Y-70658628D02*
X88317143Y-70611009D01*
X88317143Y-70611009D02*
X88221905Y-70563390D01*
X88221905Y-70563390D02*
X88174286Y-70515771D01*
X88174286Y-70515771D02*
X88126667Y-70420533D01*
X88126667Y-70420533D02*
X88126667Y-70325295D01*
X88126667Y-70325295D02*
X88174286Y-70230057D01*
X88174286Y-70230057D02*
X88221905Y-70182438D01*
X88221905Y-70182438D02*
X88317143Y-70134819D01*
X88317143Y-70134819D02*
X88555238Y-70134819D01*
X88555238Y-70134819D02*
X88698095Y-70182438D01*
X89031429Y-70134819D02*
X89269524Y-71134819D01*
X89269524Y-71134819D02*
X89460000Y-70420533D01*
X89460000Y-70420533D02*
X89650476Y-71134819D01*
X89650476Y-71134819D02*
X89888572Y-70134819D01*
X90221905Y-70230057D02*
X90269524Y-70182438D01*
X90269524Y-70182438D02*
X90364762Y-70134819D01*
X90364762Y-70134819D02*
X90602857Y-70134819D01*
X90602857Y-70134819D02*
X90698095Y-70182438D01*
X90698095Y-70182438D02*
X90745714Y-70230057D01*
X90745714Y-70230057D02*
X90793333Y-70325295D01*
X90793333Y-70325295D02*
X90793333Y-70420533D01*
X90793333Y-70420533D02*
X90745714Y-70563390D01*
X90745714Y-70563390D02*
X90174286Y-71134819D01*
X90174286Y-71134819D02*
X90793333Y-71134819D01*
X88126667Y-62487200D02*
X88269524Y-62534819D01*
X88269524Y-62534819D02*
X88507619Y-62534819D01*
X88507619Y-62534819D02*
X88602857Y-62487200D01*
X88602857Y-62487200D02*
X88650476Y-62439580D01*
X88650476Y-62439580D02*
X88698095Y-62344342D01*
X88698095Y-62344342D02*
X88698095Y-62249104D01*
X88698095Y-62249104D02*
X88650476Y-62153866D01*
X88650476Y-62153866D02*
X88602857Y-62106247D01*
X88602857Y-62106247D02*
X88507619Y-62058628D01*
X88507619Y-62058628D02*
X88317143Y-62011009D01*
X88317143Y-62011009D02*
X88221905Y-61963390D01*
X88221905Y-61963390D02*
X88174286Y-61915771D01*
X88174286Y-61915771D02*
X88126667Y-61820533D01*
X88126667Y-61820533D02*
X88126667Y-61725295D01*
X88126667Y-61725295D02*
X88174286Y-61630057D01*
X88174286Y-61630057D02*
X88221905Y-61582438D01*
X88221905Y-61582438D02*
X88317143Y-61534819D01*
X88317143Y-61534819D02*
X88555238Y-61534819D01*
X88555238Y-61534819D02*
X88698095Y-61582438D01*
X89031429Y-61534819D02*
X89269524Y-62534819D01*
X89269524Y-62534819D02*
X89460000Y-61820533D01*
X89460000Y-61820533D02*
X89650476Y-62534819D01*
X89650476Y-62534819D02*
X89888572Y-61534819D01*
X90793333Y-62534819D02*
X90221905Y-62534819D01*
X90507619Y-62534819D02*
X90507619Y-61534819D01*
X90507619Y-61534819D02*
X90412381Y-61677676D01*
X90412381Y-61677676D02*
X90317143Y-61772914D01*
X90317143Y-61772914D02*
X90221905Y-61820533D01*
X72731666Y-51294819D02*
X72731666Y-52009104D01*
X72731666Y-52009104D02*
X72684047Y-52151961D01*
X72684047Y-52151961D02*
X72588809Y-52247200D01*
X72588809Y-52247200D02*
X72445952Y-52294819D01*
X72445952Y-52294819D02*
X72350714Y-52294819D01*
X73731666Y-52294819D02*
X73160238Y-52294819D01*
X73445952Y-52294819D02*
X73445952Y-51294819D01*
X73445952Y-51294819D02*
X73350714Y-51437676D01*
X73350714Y-51437676D02*
X73255476Y-51532914D01*
X73255476Y-51532914D02*
X73160238Y-51580533D01*
%TO.C,J3*%
D12*
X81220000Y-55880000D02*
X81220000Y-63560000D01*
X81220000Y-55880000D02*
X83880000Y-55880000D01*
X81220000Y-63560000D02*
X83880000Y-63560000D01*
X82550000Y-53280000D02*
X83880000Y-53280000D01*
X83880000Y-53280000D02*
X83880000Y-54610000D01*
X83880000Y-55880000D02*
X83880000Y-63560000D01*
%TO.C,J2*%
X80070000Y-55880000D02*
X80070000Y-71180000D01*
X80070000Y-53280000D02*
X80070000Y-54610000D01*
X78740000Y-53280000D02*
X80070000Y-53280000D01*
X77410000Y-71180000D02*
X80070000Y-71180000D01*
X77410000Y-55880000D02*
X80070000Y-55880000D01*
X77410000Y-55880000D02*
X77410000Y-71180000D01*
%TO.C,SW4*%
X77910000Y-93400000D02*
X78510000Y-93400000D01*
X78210000Y-93700000D02*
X77910000Y-93400000D01*
X78510000Y-93400000D02*
X78210000Y-93700000D01*
X79610000Y-91600000D02*
X79610000Y-103400000D01*
X83710000Y-91600000D02*
X79610000Y-91600000D01*
X83710000Y-103400000D02*
X79610000Y-103400000D01*
X85210000Y-97500000D02*
X86210000Y-97500000D01*
X85710000Y-97000000D02*
X85710000Y-98000000D01*
X87710000Y-91600000D02*
X91810000Y-91600000D01*
X91810000Y-91600000D02*
X91810000Y-94000000D01*
X91810000Y-96200000D02*
X91810000Y-98800000D01*
X91810000Y-101000000D02*
X91810000Y-103400000D01*
X91810000Y-103400000D02*
X87710000Y-103400000D01*
X88710000Y-97500000D02*
G75*
G02*
X82710000Y-97500000I-3000000J0D01*
G01*
X82710000Y-97500000D02*
G75*
G02*
X88710000Y-97500000I3000000J0D01*
G01*
%TO.C,SW3*%
X92960000Y-84280000D02*
X92960000Y-82780000D01*
X91710000Y-80280000D02*
X87210000Y-80280000D01*
X87210000Y-86780000D02*
X91710000Y-86780000D01*
X85960000Y-82780000D02*
X85960000Y-84280000D01*
%TO.C,SW2*%
X92960000Y-75680000D02*
X92960000Y-74180000D01*
X91710000Y-71680000D02*
X87210000Y-71680000D01*
X87210000Y-78180000D02*
X91710000Y-78180000D01*
X85960000Y-74180000D02*
X85960000Y-75680000D01*
%TO.C,SW1*%
X85960000Y-65580000D02*
X85960000Y-67080000D01*
X87210000Y-69580000D02*
X91710000Y-69580000D01*
X91710000Y-63080000D02*
X87210000Y-63080000D01*
X92960000Y-67080000D02*
X92960000Y-65580000D01*
%TO.C,J1*%
X70465000Y-53280000D02*
X70465000Y-104200000D01*
X70465000Y-53280000D02*
X73065000Y-53280000D01*
X70465000Y-104200000D02*
X75665000Y-104200000D01*
X73065000Y-53280000D02*
X73065000Y-55880000D01*
X73065000Y-55880000D02*
X75665000Y-55880000D01*
X74335000Y-53280000D02*
X75665000Y-53280000D01*
X75665000Y-53280000D02*
X75665000Y-54610000D01*
X75665000Y-55880000D02*
X75665000Y-104200000D01*
%TD*%
M02*
