M48
; DRILL file KiCad 10.0.3 date 2026-09-30T17:16:48
; FORMAT={-:-/ absolute / metric / decimal}
; #@! TF.CreationDate,2026-09-30T17:16:48-04:00
; #@! TF.GenerationSoftware,Kicad,Pcbnew,10.0.3
; #@! TF.FileFunction,Plated,1,2,PTH
FMAT,2
METRIC
; #@! TA.AperFunction,Plated,PTH,ViaDrill
T1C0.300
; #@! TA.AperFunction,Plated,PTH,ComponentDrill
T2C1.000
; #@! TA.AperFunction,Plated,PTH,ComponentDrill
T3C1.100
; #@! TA.AperFunction,Plated,PTH,ComponentDrill
T4C1.500
%
G90
G05
T1
X83.82Y-73.66
X83.82Y-80.01
X85.09Y-57.15
X86.36Y-60.96
X88.9Y-93.98
X91.44Y-66.04
X91.44Y-102.87
X92.71Y-97.79
X93.154Y-61.246
X93.98Y-74.93
X93.98Y-83.82
T2
X71.795Y-54.61
X71.795Y-57.15
X71.795Y-59.69
X71.795Y-62.23
X71.795Y-64.77
X71.795Y-67.31
X71.795Y-69.85
X71.795Y-72.39
X71.795Y-74.93
X71.795Y-77.47
X71.795Y-80.01
X71.795Y-82.55
X71.795Y-85.09
X71.795Y-87.63
X71.795Y-90.17
X71.795Y-92.71
X71.795Y-95.25
X71.795Y-97.79
X71.795Y-100.33
X71.795Y-102.87
X74.335Y-54.61
X74.335Y-57.15
X74.335Y-59.69
X74.335Y-62.23
X74.335Y-64.77
X74.335Y-67.31
X74.335Y-69.85
X74.335Y-72.39
X74.335Y-74.93
X74.335Y-77.47
X74.335Y-80.01
X74.335Y-82.55
X74.335Y-85.09
X74.335Y-87.63
X74.335Y-90.17
X74.335Y-92.71
X74.335Y-95.25
X74.335Y-97.79
X74.335Y-100.33
X74.335Y-102.87
X78.21Y-95.0
X78.21Y-97.5
X78.21Y-100.0
X78.74Y-54.61
X78.74Y-57.15
X78.74Y-59.69
X78.74Y-62.23
X78.74Y-64.77
X78.74Y-67.31
X78.74Y-69.85
X82.55Y-54.61
X82.55Y-57.15
X82.55Y-59.69
X82.55Y-62.23
X92.71Y-95.0
X92.71Y-100.0
T3
X86.21Y-64.08
X86.21Y-68.58
X86.21Y-72.68
X86.21Y-77.18
X86.21Y-81.28
X86.21Y-85.78
X92.71Y-64.08
X92.71Y-68.58
X92.71Y-72.68
X92.71Y-77.18
X92.71Y-81.28
X92.71Y-85.78
T4
G00X85.06Y-91.9
M15
G01X86.36Y-91.9
M16
G05
G00X85.06Y-103.1
M15
G01X86.36Y-103.1
M16
G05
M30
